<?xml version="1.0" standalone="no"?><!DOCTYPE svg PUBLIC "-//W3C//DTD SVG 1.1//EN" "http://www.w3.org/Graphics/SVG/1.1/DTD/svg11.dtd"><svg t="1686120752060" class="icon" viewBox="0 0 1024 1024" version="1.1" xmlns="http://www.w3.org/2000/svg" p-id="1576" width="16" height="16" xmlns:xlink="http://www.w3.org/1999/xlink"><path d="M442.473876 522.981851H428.701765c27.528864-105.512804 59.184241-185.334733 94.966132-239.470907 12.845438 21.103585 24.313664 53.219739 34.404679 96.343343 11.929004 48.627329 21.559242 81.659917 28.900955 99.087526-48.627329 29.361732-96.799 44.045158-144.509894 44.045158z m327.550983 275.257917a191.544983 191.544983 0 0 1-6.164172-12.333463l-0.839638-1.909665-2.564992-8.140393-0.066556-1.013709c0-2.063257 0.255987-3.870526 0.773081-5.416689l0.60413-1.464247 8.258147 30.278166z m-23.39723 49.543763c-12.845438-28.440178-21.564362-49.082986-26.151653-61.928424l4.131634-1.382331 22.020019 63.310755z m64.032638-14.755102l-2.099095-5.375732a1191.850807 1191.850807 0 0 1-12.389781-33.539443l4.131634-2.754422c4.034358 18.840658 7.331473 32.254387 9.891345 40.236068l0.465897 1.433529z m1.177541 27.493025c-7.920244-23.474026-13.142383-41.946063-15.666417-55.39563l2.754423-2.759542 15.123724 64.682846-2.21173-6.522554z m-560.668286 36.810959l-2.754423-2.754422 19.270717-63.305635 2.749302 2.749303-19.265596 63.310754z m587.603259 70.60127l-3.379031-9.963022c-4.582171-13.720914-9.169462-28.158592-13.761872-43.313034l-0.870356-2.867057 0.184311 1.443768c1.837988 12.645768 5.503725 25.690875 11.007449 39.150683 2.39092 5.319414 4.571931 10.290685 6.553273 14.913814l0.266226 0.634848zM215.643618 803.134243l-2.329484 7.694976c-12.661127 42.944413-22.982531 88.750762-30.959092 137.419049l34.40468-141.755473-1.116104-3.358552z m0 0l1.535923-5.104384c15.758572-50.844178 34.885936-97.572081 57.387211-140.178592-11.929004 41.290735-22.936453 74.323324-33.032589 99.092646-13.761872 44.045158-22.936453 77.533403-27.523744 100.469856-5.508845 32.116154-8.718924 56.429819-9.635358 72.940993l30.467597-107.330313-0.696285 3.158882c-1.075146 4.879116-2.027419 9.374251-2.846578 13.485406l-0.773081 3.98316 27.523743-99.092645c11.929004-38.536313 25.230098-70.19169 39.913525-94.961012 0 4.587291-4.131633 18.349163-12.389781 41.285616-9.174581 28.445298-14.222649 43.123604-15.139083 44.040038-11.929004 38.536313-24.313664 77.072626-37.159102 115.608939-13.761872 44.956472-22.014899 83.953562-24.774441 116.986151 35.787011-141.304935 71.113244-251.860687 105.978701-331.682616l2.749303 6.880936c-45.872906 115.936603-78.101695 225.811429-96.681246 329.619359l-2.457478 14.166332 0.660447-2.626429c2.851697-10.341883 7.270036-18.973771 13.244778-25.890545l2.657147-2.856817c-6.425279 15.59986-9.635358 29.361732-9.635358 41.290735 0 8.258147 1.382331 17.432728 4.131634 27.523744 33.943903-122.945533 89.912944-263.328914 167.902004-421.139903 47.716014 0 115.60894-16.055517 203.689016-48.171672 11.00745 31.19972 20.187151 54.59183 27.528864 70.191691 7.336593 19.265597 20.182031 55.508265 38.536313 108.728003 15.59474 46.79446 29.817389 83.032008 42.662827 108.722884 17.432728 36.703445 31.1946 63.766412 41.285615 81.19914 17.432728 42.20717 27.528864 64.687966 30.278166 67.437268l-24.769321-86.702864 1.372091-5.503725c10.096135 41.285616 22.025139 78.444718 35.787011 111.477306-21.103585-51.381751-40.374301-126.160732-57.80191-224.331823l0.015359 0.061436 2.513795 7.894646c11.5911 36.529374 20.018199 64.626529 25.291535 84.296585l1.075146 4.085556c17.437848 52.298185 29.822509 88.540853 37.164222 108.722883l-0.081916-0.220149-13.685076-42.442677-13.761872-42.662827c-11.00745-34.865457-17.432728-64.227189-19.265596-88.085196l2.749302-1.372091-8.253027-28.906075 1.372091-2.749303-5.503725-26.151652-9.635358-12.389781c-8.253027-23.852887-12.384661-36.698325-12.384661-38.531193l1.377212-5.503725 5.503724 9.630239 1.377212-1.372092a12.215709 12.215709 0 0 1-1.377212-5.508844A1480.240868 1480.240868 0 0 1 754.885776 767.961602l1.377211-5.503725 4.19307 13.39837 0.030719 0.20991c0.255987 1.80215 1.023949 4.259627 2.314124 7.377551l0.220149 0.552932 8.381021 26.627789v-8.258147c4.587291 6.425279 7.336593 13.306215 8.258147 20.647927l-5.508845-11.007449 5.508845 19.265596 1.372091-8.258147c15.59986 56.880356 26.151652 98.631868 31.655378 125.239178l1.244097-6.297285-0.38398-2.047897c-4.873996-24.856357-7.444108-38.899815-7.715455-42.120134l-0.025598-0.460777-2.754423-2.749303c-4.587291-14.678306-7.336593-26.146533-8.253027-34.40468-0.921554-0.921554-2.068377-2.984811-3.440468-6.19489-1.382331-3.210079-2.068377-5.734113-2.068377-7.566982l0.087036-0.174071 1.290176-2.580351 2.754422 2.754422-41.290736-155.522463 2.754423-11.00745c-5.503725-9.174581-7.79737-15.139083-6.880936-17.893505-1.837988-0.921554-2.754422-1.832868-2.754423-2.754423v-2.749302l1.377212-2.754422c0-0.916434 0.921554-2.293645 2.754422-4.126514h1.372091l46.794461 178.914574a2323.058247 2323.058247 0 0 0 20.642807 74.645868l2.570112 8.631888-0.578531-4.848397c-0.20479-2.083736-0.358382-4.157232-0.460777-6.21537l-0.153592-6.153932 15.523063 39.944243-2.472836-6.911655c-6.80926-19.915804-12.041638-42.068937-15.707375-66.474756l-1.469366-10.59787 35.787011 112.854517c-22.941573-85.330773-38.99709-149.552842-48.176792-192.676446l-26.146532-104.59637c-17.432728-87.168762-29.361732-153.228819-35.787011-198.185291-21.098465-83.492785-38.531193-146.342763-52.293065-188.549932-24.779561-89.00163-42.667947-156.438898-53.675397-202.311805-11.929004-33.949023-26.60731-57.346253-44.040038-70.19169-13.766992 3.670856-22.936453 9.174581-27.528863 16.516294L558.077696 19.265597c-4.587291 0-8.258147-0.916434-11.00745-2.749303l-4.131633-2.754422-4.126514-1.377211c-2.754422-3.665737-6.425279-7.336593-11.012569-11.00745A12.215709 12.215709 0 0 0 522.295805 0c-12.850557 0-27.068087 0.460777-42.667946 1.377211-39.452747 67.892925-74.773861 141.294695-105.973582 220.20019-33.943903 84.414339-67.892925 176.626049-101.841948 276.635128-46.79446 137.628959-70.19169 227.086246-70.19169 268.376982 0 0.911314 0.460777 2.749303 1.382331 5.498605v5.508844C183.727134 825.302735 174.096895 870.725104 174.096895 913.848708c13.761872-87.163642 35.326234-163.319834 64.682846-228.463457l1.382331 4.126513-13.766992 38.536314h1.377211v2.754422l-4.131633 4.126514c-27.523744 110.105215-42.662827 171.577981-45.412129 184.423418l35.78189-121.112664 1.633199 4.899595z" fill="#afb1b3" p-id="1577"></path></svg>