<?xml version="1.0" standalone="no"?><!DOCTYPE svg PUBLIC "-//W3C//DTD SVG 1.1//EN" "http://www.w3.org/Graphics/SVG/1.1/DTD/svg11.dtd"><svg class="icon" width="16px" height="16px" viewBox="0 0 1024 1024" version="1.1" xmlns="http://www.w3.org/2000/svg"><path d="M506.593442 452.251392l-11.376299-18.482645v-7.116587l1.423318-2.841514-1.423318-2.846635c7.587612 8.534784 13.275762 15.646251 17.069568 21.3344-1.894343 6.635321-3.793806 9.952981-5.693269 9.952981z m-17.064448 38.398848l-25.599232-61.151445c5.688149 2.841515 11.616931 9.952981 17.776107 21.3344 6.164295 11.376299 9.246443 19.905963 9.246442 25.599232 0 3.788686-0.476146 8.529664-1.423317 14.217813z m9.958101-25.599232l-8.534784-18.482645-1.423317-4.269952h2.846635l8.529664 8.534784 5.688149 2.841515-4.264832 2.846634-1.423317 7.111467-1.418198 1.418197z m65.416278 41.245483l-4.264832-2.846634 11.376299-8.529665c-1.894343 3.788686-3.31766 7.111467-4.264833 9.952982l-2.846634 1.423317z m12.799616 27.022549l-2.841515-1.423317v-11.376299l4.264832-14.222933 1.423318 14.222933-2.846635 12.799616z m-62.574763-7.116586l-2.841515-7.106347V511.98464h7.106347l-4.264832 14.222934z m-297.232683 78.226133c-0.952291-2.846635-1.423317-6.164295-1.423317-9.958101l0.020479 0.778217 0.066558 0.419827c0.383988 1.351639 2.022339-5.437277 4.915053-20.361629l0.686059-3.589013c-0.947172-0.952291-0.476146-1.894343 1.423317-2.846634h1.418198l1.423317 1.423317-8.529664 34.134016z m-8.534784 388.253313c0-11.376299 1.423317-28.445867 4.264832-51.198465 2.846635-22.757717 4.269952-39.822165 4.269952-51.198464l-1.423317-7.111466c-4.740978 23.704889-7.116587 60.209394-7.116587 109.508395z m573.212884-191.830406l0.138236 1.838025c1.397718 19.99812 3.696529 36.396988 6.896433 49.196604V831.975041c0-11.616931-1.812426-21.052808-5.442397-28.312751l-1.592272-2.810796zM202.433607 619.844445l-1.464276 9.906902c-7.183145 49.964581-12.518024 104.188874-15.99952 162.662641l-0.235513 3.865484 0.127996-1.587153c0.506865-6.579003 1.085407-13.588072 1.740748-21.027209 7.879444-51.198464 13.030009-99.66805 15.451696-145.413878l0.378869-8.406787z m37.400478 253.601352l0.814056-1.648591c0.947172 3.788686 1.423317 7.582493 1.423317 11.376299l-0.01536-0.158715 0.030719-5.391199c0.143356-27.068628 1.402838-43.800286 3.763088-50.194974l0.486385-1.141726c0-0.947172-0.947172-1.423317-2.841515-1.423317l-0.563183 0.020479-0.051198 0.752618c-1.33116 20.156835-2.303931 35.516375-2.938792 46.078618l-0.107517 1.730508z m608.032959 21.278081l0.102397 1.561553c2.365369 35.429337 7.562013 65.191004 15.595052 89.285002l-12.799616-71.109547 1.418198-5.688149a107.055988 107.055988 0 0 1-3.665811-11.488936l-0.65534-2.559923z m-18.067938-97.266842l0.184314 3.046309c0.947172 15.436337 1.710029 27.826365 2.293692 37.159845v-36.975531a16.485905 16.485905 0 0 1-1.535954-1.766347l-0.942052-1.464276z m-12.518024-93.206804l-0.255993-0.66558c-0.450546-1.064928-1.059808-2.355129-1.817545-3.870603l-1.423318-1.423318-4.264832-1.423317v-35.552213l2.846635 1.418197c2.841515 13.275762 4.740978 23.228743 5.68303 29.869184 0-18.016739-0.942052-28.445867-2.841515-31.287381l2.846634-42.6688L828.00716 767.976961l0.844774 13.869664 0.040959 1.023969 0.061438-0.358389c0.158715-0.890853 0.33791-1.843145 0.537584-2.841515l0.650221-3.158945c1.423317-6.640441 2.134976-11.852444 2.134976-15.646251 0-2.841515-0.476146-5.688149-1.423318-8.534784 4.740978 11.381419 7.823125 36.028359 9.241323 73.956181 1.044449 27.811006 3.491735 50.01578 7.33674 66.609202l0.430067 1.827785-0.419827-7.418657c-0.471026-9.092847-0.767977-18.538964-0.885734-28.34347l-0.061438-9.922262V844.774657l1.423317-2.846635-2.841514-4.264832c4.735858-28.440747 7.106347-48.351829 7.106347-59.733248 0-41.716509-2.129856-104.291271-6.399808-187.724288l-0.542704-10.767037c-3.901323-78.072538-5.857104-137.058288-5.857105-176.962371 0-6.635321-0.706539-16.828935-2.129856-30.575723-1.423317-13.746788-2.134976-24.416548-2.134976-31.99904 0-16.117276 0.947172-40.293191 2.846635-72.532864l0.419827-7.295781c1.612752-28.609702 2.421687-50.353689 2.421688-65.231963 0-7.587612 1.65883-18.728398 4.976491-33.422358 3.32278-14.693959 4.981611-25.839865 4.98161-33.422357 0-50.251292-9.958101-91.967801-29.869184-125.149525-3.788686-0.952291-6.635321-1.894343-8.529664-2.846635h-11.381419v5.688149h-5.683029V12.799616l-9.958101-7.111467-4.264832 14.222934-5.69327-5.68815-4.264832 2.841515h-4.264832l-2.846634 2.846635c-2.841515-1.894343-5.68303-2.846635-8.529664-2.846635l-8.534784 1.423317V25.599232L739.833165 18.487765c-22.752597 27.493575-39.822165 47.169145-51.198464 59.02159-11.376299 11.852444-39.110507 60.439787-83.197504 145.772267S537.885943 357.913103 535.039309 371.188864c-15.170105-37.922702-27.493575-65.892423-36.975531-83.909162a52440.707739 52440.707739 0 0 1-38.398848-110.931712c-18.016739-38.869874-32.239673-67.786766-42.6688-86.750678-12.32347-29.387918-20.858254-47.409778-25.599232-54.045099h-1.418197l-4.269952-8.529664L382.867234 25.599232h-9.958101l-7.111467 5.688149c-1.894343-1.894343-4.735858-3.788686-8.529664-5.688149h-2.846635l-1.423317 1.423317L351.579853 25.599232a106.799996 106.799996 0 0 0-11.381419 9.952981l-4.264832-5.683029H324.562423c-1.894343-0.952291-4.264832-1.423317-7.111467-1.423317l0.721899 0.035839 0.353269 0.051198c0.957411 0.31743-3.645331 1.515475-13.808226 3.589012l-2.913192 0.588783-1.418198-1.423318-5.688149 8.534784-8.534784-4.269952c-18.016739 16.122396-32.234553 37.927822-42.66368 65.421398C218.837595 168.289351 198.455486 283.01487 182.33309 445.139926c-12.32347 132.737138-18.487765 252.203634-18.487765 358.389248V934.371969c0.947172 9.481956 1.423317 16.588302 1.423317 21.3344 13.270642-194.364729 26.070258-323.308061 38.398848-386.835115l-0.00512 0.046078-0.097277 14.494286a1122.833515 1122.833515 0 0 1-0.808936 29.695109l-0.32767 6.737718 0.747498-4.950892c0.757737-4.915053 1.530834-9.778907 2.32441-14.606922l2.431927-14.350929-9.952981 169.241643c5.68303-51.198464 10.429127-94.814436 14.217813-130.842795l2.846635-2.841515 1.423317 1.423318V614.381569l1.423317-5.68815c0 13.270642-1.423317 39.34602-4.269952 78.221014h4.269952l8.529664-59.733248-4.264832-8.534784 5.68815-8.529665c0.947172 1.894343 1.423317 8.058638 1.423317 18.482646 0.947172 1.899463 2.370489 3.798926 4.264832 5.693269-2.841515-14.222933-0.947172-31.763527 5.688149-52.621781 0 18.963911-1.894343 46.933632-5.683029 83.909163-3.798926 36.975531-5.693269 64.474226-5.693269 82.485845 0 13.275762 0.947172 26.546404 2.846634 39.822165l2.841515-15.64625V767.976961c-2.841515-5.688149-4.264832-11.376299-4.264832-17.064448 0.947172-3.793806 2.370489-6.640441 4.264832-8.534784l-2.841515-2.846635c4.735858-31.282262 8.058638-55.463296 9.952982-72.527744l-0.271352 2.375609-0.752618-1.35164c-0.911333-1.935302-1.479636-4.208514-1.704908-6.829875l-0.117757-2.728878c0-4.740978 3.32278-18.01162 9.958101-39.822165 0-7.582493-1.423317-14.693959-4.264832-21.329281l2.841515-1.423317 7.111467 2.841515-12.564103 69.732308 0.102397 0.511985c0.66558 5.488475 1.029089 18.800076 1.075167 39.934802v3.609491l0.051199-6.276931c0.414708-35.260382 3.737488-61.806786 9.958101-79.644331l1.377239-3.686289 2.846634 5.683029a67261.250002 67261.250002 0 0 0-13.101687 192.301431l-0.163835 2.242493 0.107517-0.235513c0.117756-0.409588 0.204794-0.870374 0.266232-1.377239l0.092157-1.643471c0-2.370489 1.894343-4.505465 5.68303-6.399808l-1.418198-9.958101 1.423318-2.841515h1.418197c0 7.582493-0.706539 18.723278-2.129856 33.422358-1.423317 14.693959-2.134976 25.834745-2.134976 33.417237 0.947172 3.793806 1.894343 7.116587 2.846635 9.958101-0.952291 2.841515-3.558293 23.704889-7.823126 62.574763-4.264832 38.874994-6.399808 62.103737-6.399808 69.68623 0 5.688149 1.423317 10.429127 4.264832 14.222933-2.841515-7.582493-2.841515-21.810546 0-42.66368 1.894343-20.858254 5.688149-33.65787 11.376299-38.398848 0-10.429127 2.134976-26.316011 6.399808-47.645291 4.269952-21.3344 6.399808-37.211044 6.399808-47.640171l-1.418197-9.958101c1.894343-6.635321 5.212004-24.175915 9.952981-52.621781 2.846635-22.752597 7.111467-38.398848 12.799616-46.928512l-2.841515-7.116587c4.735858-18.958791 7.106347-33.65275 7.106347-44.081877v-5.68815c8.534784-36.028359 13.275762-64.474226 14.222933-85.33248 8.534784-43.615972 15.170105-76.32667 19.916203-98.132096 10.424007-80.586382 18.958791-133.208164 25.599232-157.860224 2.841515-9.481956 7.577373-18.487765 14.217813-27.022549C398.98451 381.141846 426.478086 431.864164 445.441997 465.051008l5.688149 1.423318c5.688149 4.740978 17.540594 22.281572 35.557333 52.621781-12.32859 21.810546-18.492885 37.922702-18.492885 48.35183l1.423317 8.534784 11.376299-24.175915c-3.788686 17.064448-11.376299 40.769337-22.752597 71.109547l0.522224-1.413078 2.150336-5.642071c15.00115-39.248743 27.723968-65.969221 38.173574-80.166555l1.817546-2.375609 5.688149 9.952982-25.599232 48.356949 25.599232-45.515434h7.116587l5.683029 5.693269-2.841515-4.269952c0.947172-1.894343 2.370489-2.841515 4.264833-2.841515l1.423317-2.846634 0.460786-1.070048 0.250872 0.537584 0.711659 1.955781v-4.264832l-0.215033 0.010239 0.199674-0.424947c3.717008-8.268552 7.131946-13.198964 10.239692-14.791236l1.151966-0.440307h4.264832c2.846635-7.582493 3.793806-12.799616 2.846634-15.641131l1.776587 1.776587 2.488246 2.488245v2.846635l-5.68303 22.752597 7.106347-7.111466c3.788686-10.429127 6.164295-16.588302 7.111466-18.487766l1.423318-1.423317 2.841515 4.269952c-8.754937 16.915973-15.3493 31.865924-19.793327 44.834495l-0.962531 2.897833 1.638351-3.962761c5.498715-12.32347 13.895263-21.923182 25.199884-28.783777l3.875724-2.186174 1.418197 2.841515-1.418197 2.846634 4.264832-2.846634c0.947172 3.788686 1.423317 8.058638 1.423317 12.799616-15.646251 25.599232-27.555013 50.133536-35.736528 73.597792l-0.143355 0.445427 8.857334-18.579923v4.269952c0.947172 2.841515 1.423317 4.740978 1.423317 5.683029-13.772387 36.253632-25.056528 65.298521-33.842185 87.139786l-0.686059 1.689549 3.711889-9.026289c3.481496-8.427267 6.952751-16.803336 10.429127-25.123086l10.429127-24.810776c15.170105-34.128896 28.445867-56.410468 39.822165-66.839595l-4.264832 19.911083c23.704889-59.733248 40.293191-90.549604 49.775147-92.443947l1.423317-5.688149c3.788686-4.740978 7.111467-10.905273 9.952982-18.487765l1.423317-2.134976c0.844775-1.264602 11.048629-21.441917 30.616681-60.537064L675.835085 396.788096c18.963911-37.922702 32.234553-60.68042 39.822165-68.262912 4.740978 89.121166 7.582493 155.489735 8.529664 199.105707 1.894343 64.469106 8.534784 156.913053 19.916203 277.3216 8.529664 41.716509 16.588302 73.00901 24.175915 93.867264 8.529664 56.881494 16.588302 91.967801 24.175914 105.238443-17.069568-91.967801-25.599232-206.217173-25.599232-342.742997l21.298561 238.707718-5.65743-99.33526 0.076798 0.163835-0.296951-4.966251a771.356059 771.356059 0 0 1-1.167325-37.99438l-0.030719-8.401668c0-15.170105 1.418197-25.128206 4.264832-29.864064 0-1.894343-1.894343-11.852444-5.68815-29.869184l2.841515-4.264832 4.269952 1.423318c0.947172 2.211774 1.791946 4.213634 2.524084 6.005579l0.199674 0.491506-0.619501-2.518965a35.311581 35.311581 0 0 1-0.511985-3.409817l-0.174075-3.414938c0-5.688149 1.423317-10.905273 4.269952-15.641131 0 18.282972 0.522224 34.99927 1.566673 50.148896l0.404468 5.3144-0.153595-3.798926c-0.199674-5.631831-0.32255-11.65789-0.373749-18.083297l-0.020479-6.563643 1.418197-22.752598c5.688149 19.911083 9.481956 35.081188 11.381419 45.510315l-1.423318 12.799616c4.740978 9.481956 6.159175 25.599232 4.264832 48.351829l4.264832-1.423317c1.894343-0.947172 3.32278 0 4.269952 2.846635-2.846635-6.635321-4.269952-14.222933-4.269952-22.752598v-8.534784l4.269952-7.111466-4.269952-1.423318-1.418197-4.264832c0-2.846635 0.471026-7.111467 1.418197-12.799616v-14.222933l1.423318-2.841515v-5.693269l2.073538 3.123106z" fill="#FF7E00" /></svg>