<svg class="icon" viewBox="0 0 1024 1024" version="1.1" xmlns="http://www.w3.org/2000/svg"><path d="M667.68 624a24 24 0 0 1-16-6.72l-83.68-80a24.16 24.16 0 1 1 33.28-34.88l83.52 80a24 24 0 0 1-16 41.44z" fill="#E50001"></path><path d="M724.48 514.56a24.48 24.48 0 0 0-4.64-4.48A208 208 0 0 0 512 304a202.08 202.08 0 0 0-26.08 1.6c-103.52-57.44-188.8-65.6-228.16-20.8S236.16 411.84 304 507.04a24.8 24.8 0 0 0 0 4.96 208 208 0 0 0 208 208 199.68 199.68 0 0 0 25.92-1.76c64 37.12 120.96 56.16 165.44 56.16a94.72 94.72 0 0 0 74.24-28.8c40.48-45.6 20.64-132-53.12-231.04z m-355.2 69.28c14.88 16 30.56 30.88 48 45.6 12.48 11.2 25.28 21.6 38.24 32a160 160 0 0 1-86.24-77.6z m372.32 129.92C722.4 736 657.12 732.8 560 675.36a729.76 729.76 0 0 1-112-81.76 715.2 715.2 0 0 1-102.4-112c-61.76-84.64-70.4-145.28-52.16-165.76 14.88-16.8 59.04-18.88 125.28 9.6a208 208 0 0 0-81.28 72.16 24 24 0 0 0 40.16 26.24A160 160 0 0 1 672 512a160 160 0 0 1-53.12 119.04l-130.08-128a24 24 0 1 0-33.6 34.24l145.12 143.04a24 24 0 0 0 30.56 2.56 208 208 0 0 0 48-46.56 204.8 204.8 0 0 0 30.56-58.56c43.36 68.8 48.32 117.76 32.16 136z" fill="#121244"></path><path d="M768 464m-24 0a24 24 0 1 0 48 0 24 24 0 1 0-48 0Z" fill="#E50001"></path></svg>