<?xml version="1.0" encoding="UTF-8"?>
<!DOCTYPE svg PUBLIC "-//W3C//DTD SVG 1.1//EN" "http://www.w3.org/Graphics/SVG/1.1/DTD/svg11.dtd">
<svg xmlns="http://www.w3.org/2000/svg" version="1.1" width="629px" height="174px" style="shape-rendering:geometricPrecision; text-rendering:geometricPrecision; image-rendering:optimizeQuality; fill-rule:evenodd; clip-rule:evenodd" xmlns:xlink="http://www.w3.org/1999/xlink">
<g><path style="opacity:0.964" fill="#0051d9" d="M 147.5,13.5 C 186.217,10.5977 213.717,26.5977 230,61.5C 231.647,66.7538 232.98,72.0871 234,77.5C 244.103,78.0474 247.437,83.0474 244,92.5C 241.358,95.0288 238.192,96.0288 234.5,95.5C 228.743,132.757 207.41,155.257 170.5,163C 149.066,165.809 129.732,160.809 112.5,148C 99.7383,147.962 87.0716,147.295 74.5,146C 70.5,141.333 70.5,136.667 74.5,132C 83.7331,130.72 93.0664,130.053 102.5,130C 109.034,125.244 109.034,120.577 102.5,116C 85.0758,115.973 67.7424,115.306 50.5,114C 45.7455,109.649 45.4122,104.982 49.5,100C 61.7379,98.7059 74.0712,98.0393 86.5,98C 92.3745,96.0268 94.2079,92.1934 92,86.5C 90.6811,84.5125 88.8477,83.3459 86.5,83C 76.0683,82.9524 65.7349,82.2857 55.5,81C 50.8572,74.8805 51.8572,69.8805 58.5,66C 76.5905,65.9738 94.5905,65.3071 112.5,64C 116.5,60 116.5,56 112.5,52C 101.263,50.7097 89.9302,50.043 78.5,50C 73.391,46.6338 72.2243,42.1338 75,36.5C 75.9025,35.2986 77.0692,34.4652 78.5,34C 88.1667,33.6667 97.8333,33.3333 107.5,33C 119.192,22.9865 132.526,16.4865 147.5,13.5 Z M 174.5,21.5 C 182.668,22.4986 185.168,26.832 182,34.5C 175.334,38.9226 170.834,37.256 168.5,29.5C 168.685,25.3325 170.685,22.6659 174.5,21.5 Z M 162.5,41.5 C 176.5,41.5 190.5,41.5 204.5,41.5C 204.5,47.5 204.5,53.5 204.5,59.5C 210.5,59.5 216.5,59.5 222.5,59.5C 222.5,62.5 222.5,65.5 222.5,68.5C 213.5,68.5 204.5,68.5 195.5,68.5C 195.5,62.5 195.5,56.5 195.5,50.5C 187.5,50.5 179.5,50.5 171.5,50.5C 171.5,62.5 171.5,74.5 171.5,86.5C 163.833,86.5 156.167,86.5 148.5,86.5C 148.5,83.5 148.5,80.5 148.5,77.5C 153.167,77.5 157.833,77.5 162.5,77.5C 162.5,65.5 162.5,53.5 162.5,41.5 Z M 148.5,43.5 C 151.5,43.5 154.5,43.5 157.5,43.5C 157.5,52.5 157.5,61.5 157.5,70.5C 151.5,70.5 145.5,70.5 139.5,70.5C 139.5,78.5 139.5,86.5 139.5,94.5C 151.5,94.5 163.5,94.5 175.5,94.5C 175.5,102.167 175.5,109.833 175.5,117.5C 172.5,117.5 169.5,117.5 166.5,117.5C 166.5,113.167 166.5,108.833 166.5,104.5C 154.5,104.5 142.5,104.5 130.5,104.5C 130.5,90.1667 130.5,75.8333 130.5,61.5C 136.5,61.5 142.5,61.5 148.5,61.5C 148.5,55.5 148.5,49.5 148.5,43.5 Z M 179.5,59.5 C 182.5,59.5 185.5,59.5 188.5,59.5C 188.5,63.8333 188.5,68.1667 188.5,72.5C 200.833,72.5 213.167,72.5 225.5,72.5C 225.5,86.8333 225.5,101.167 225.5,115.5C 219.167,115.5 212.833,115.5 206.5,115.5C 206.5,121.5 206.5,127.5 206.5,133.5C 203.5,133.5 200.5,133.5 197.5,133.5C 197.5,124.5 197.5,115.5 197.5,106.5C 203.833,106.5 210.167,106.5 216.5,106.5C 216.5,98.5 216.5,90.5 216.5,82.5C 204.167,82.5 191.833,82.5 179.5,82.5C 179.5,74.8333 179.5,67.1667 179.5,59.5 Z M 232.5,80.5 C 233.647,84.6463 233.814,88.9796 233,93.5C 228.52,89.315 228.353,84.9817 232.5,80.5 Z M 115.5,82.5 C 121.168,81.9932 124.835,84.4932 126.5,90C 124.847,95.674 121.18,98.0074 115.5,97C 108.899,92.1709 108.899,87.3376 115.5,82.5 Z M 184.5,90.5 C 192.167,90.5 199.833,90.5 207.5,90.5C 207.5,93.5 207.5,96.5 207.5,99.5C 202.833,99.5 198.167,99.5 193.5,99.5C 193.5,111.5 193.5,123.5 193.5,135.5C 179.167,135.5 164.833,135.5 150.5,135.5C 150.5,129.5 150.5,123.5 150.5,117.5C 144.5,117.5 138.5,117.5 132.5,117.5C 132.5,114.5 132.5,111.5 132.5,108.5C 141.5,108.5 150.5,108.5 159.5,108.5C 159.5,114.5 159.5,120.5 159.5,126.5C 167.833,126.5 176.167,126.5 184.5,126.5C 184.5,114.5 184.5,102.5 184.5,90.5 Z M 178.5,139.5 C 185.982,141.13 188.148,145.463 185,152.5C 181.385,156.317 177.552,156.483 173.5,153C 169.78,146.461 171.446,141.961 178.5,139.5 Z"/></g>
<g><path style="opacity:0.944" fill="#0052d9" d="M 47.5,33.5 C 53.2896,33.0962 58.9562,33.5962 64.5,35C 70.0249,40.7754 69.3583,45.7754 62.5,50C 56.6504,51.0116 50.9837,50.5116 45.5,48.5C 41.2303,42.8474 41.8969,37.8474 47.5,33.5 Z"/></g>
<g><path style="opacity:0.971" fill="#0051d9" d="M 570.5,35.5 C 584.144,33.8742 595.31,38.2075 604,48.5C 611.926,64.9564 608.76,78.7897 594.5,90C 612.412,101.14 616.912,116.307 608,135.5C 599.273,144.944 588.44,149.611 575.5,149.5C 565.072,149.397 555.738,146.231 547.5,140C 536.547,127.522 535.713,114.356 545,100.5C 548.718,96.7265 552.884,93.5599 557.5,91C 544.572,81.551 540.406,69.051 545,53.5C 550.349,42.9773 558.849,36.9773 570.5,35.5 Z M 573.5,51.5 C 585.944,52.4504 591.11,59.1171 589,71.5C 587.913,76.4129 585.413,80.4129 581.5,83.5C 573.628,81.3219 567.794,76.6552 564,69.5C 561.69,60.4466 564.857,54.4466 573.5,51.5 Z M 567.5,97.5 C 575.687,100.175 582.853,104.509 589,110.5C 593.954,127.559 587.454,134.726 569.5,132C 557.799,125.511 555.299,116.344 562,104.5C 563.842,102.136 565.675,99.8031 567.5,97.5 Z"/></g>
<g><path style="opacity:0.968" fill="#0052d9" d="M 452.5,37.5 C 476.833,37.5 501.167,37.5 525.5,37.5C 525.666,42.5111 525.499,47.5111 525,52.5C 503.051,80.1911 493.218,111.858 495.5,147.5C 487.833,147.5 480.167,147.5 472.5,147.5C 472.104,114.196 481.437,84.0294 500.5,57C 484.503,56.5001 468.503,56.3334 452.5,56.5C 452.5,50.1667 452.5,43.8333 452.5,37.5 Z"/></g>
<g><path style="opacity:0.975" fill="#0051d9" d="M 324.5,61.5 C 351.554,63.5577 365.554,78.2243 366.5,105.5C 365.944,132.219 352.444,146.885 326,149.5C 300.046,146.377 286.88,131.71 286.5,105.5C 287.133,80.1403 299.8,65.4736 324.5,61.5 Z M 322.5,80.5 C 332.732,79.8912 339.232,84.5578 342,94.5C 345.049,105.953 343.382,116.62 337,126.5C 322.005,133.891 313.005,129.224 310,112.5C 308.199,102.712 310.032,93.7116 315.5,85.5C 317.724,83.566 320.058,81.8994 322.5,80.5 Z"/></g>
<g><path style="opacity:0.982" fill="#0051d8" d="M 380.5,63.5 C 400.5,63.5 420.5,63.5 440.5,63.5C 440.897,68.9586 440.397,74.2919 439,79.5C 427.377,95.9127 415.877,112.413 404.5,129C 417.162,129.5 429.829,129.667 442.5,129.5C 442.5,135.5 442.5,141.5 442.5,147.5C 420.5,147.5 398.5,147.5 376.5,147.5C 376.334,142.821 376.501,138.155 377,133.5C 388.833,116.333 400.667,99.1667 412.5,82C 401.839,81.5002 391.172,81.3335 380.5,81.5C 380.5,75.5 380.5,69.5 380.5,63.5 Z"/></g>
<g><path style="opacity:0.95" fill="#0052d9" d="M 18.5,65.5 C 26.1739,65.3336 33.8406,65.5003 41.5,66C 47.0949,68.354 48.9282,72.5207 47,78.5C 45.8333,79.6667 44.6667,80.8333 43.5,82C 34.5,82.6667 25.5,82.6667 16.5,82C 12.2119,78.2288 11.3786,73.7288 14,68.5C 15.6516,67.6006 17.1516,66.6006 18.5,65.5 Z"/></g>
</svg>
