<?xml version="1.0" standalone="no"?>
<!DOCTYPE svg PUBLIC "-//W3C//DTD SVG 1.1//EN" "http://www.w3.org/Graphics/SVG/1.1/DTD/svg11.dtd" >
<svg xmlns="http://www.w3.org/2000/svg">
  <metadata>Created by iconfont</metadata>
  <defs>
  <font id="iconfont" horiz-adv-x="1024">
    <font-face
      font-family="iconfont"
      font-weight="400"
      font-stretch="normal"
      units-per-em="1024"
      ascent="896"
      descent="-128"
    />
      <missing-glyph />
      
      <glyph glyph-name="init" unicode="&#59022;" d="M1013.279959 530.093348a32.304696 32.304696 0 0 1-45.738332-0.319848l-0.959545-0.959546-24.948181-26.867271c-47.977271 178.795296-197.986204 313.771351-381.259378 335.521047-18.231363 1.919091-34.543635-11.514545-36.462726-29.745908-2.238939-18.551211 10.874848-35.50318 29.106211-37.422271 172.718175-20.470302 310.572866-158.005145 335.521047-334.241653l0.959545-4.158031c0-9.275606 3.518333-18.231363 10.235151-24.628332 12.793939-12.47409 33.264241-12.47409 46.05818 0.319849l0.639697 0.639697 68.447573 73.565148c12.154242 14.073333 11.514545 35.183332-1.599242 48.297119zM89.557572 404.712747c18.231363-2.238939 34.863483 10.555 37.102423 28.786363C150.328782 610.375315 287.543776 748.869703 460.581799 770.299551c18.231363 2.558788 31.025302 19.190908 28.786363 37.742119 0 0.639697-0.319848 1.279394-0.319849 1.919091 2.878636 14.71303-4.15803 29.106211-17.271817 36.142877L383.178469 892.161818c-15.992424 8.31606-35.823029 1.919091-43.81924-14.073332 0-0.319848-0.319848-0.639697-0.319849-0.959546-8.635909-15.992424-2.238939-36.142877 14.073333-45.098634l22.069544-11.514545C210.140446 768.700308 85.399542 622.849405 61.410907 442.774715c-2.878636-18.231363 9.915303-35.183332 28.146665-38.061968z m371.024227-416.44271c-176.236508 22.069545-313.771351 163.442569-334.88135 343.837107-0.319848 9.915303-5.117576 19.510757-12.793938 25.587878a32.944393 32.944393 0 0 1-45.738332-5.757273c-0.319848-0.319848-0.319848-0.639697-0.639697-0.959545L6.716818 269.736692c-10.874848-15.032878-7.996212-35.823029 6.396969-47.337574a32.144771 32.144771 0 0 1 46.378029 6.716818l15.352726 21.109999c49.256665-175.276963 196.067113-306.414836 377.741046-329.124077 18.231363-1.919091 34.543635 11.194697 36.782574 29.426059 2.558788 18.551211-10.555 35.183332-28.786363 37.74212z m465.379527 371.983773c-18.231363 1.919091-34.863483-11.194697-36.782574-29.42606-21.429848-180.07469-159.284539-320.808017-334.88135-342.557713-18.231363-2.558788-31.025302-19.190908-28.786363-37.74212 0-0.639697 0.319848-1.279394 0.319849-2.238939 0-12.793939 7.036666-24.948181 19.190908-30.705453l90.197269-42.539847c16.632121-7.676363 36.142877-0.319848 43.499392 16.312272v0.319849c7.676363 16.951969 0.319848 36.782574-16.312272 44.778786l-11.194696 5.117575c161.843327 55.653634 281.466655 201.184689 303.216351 380.299833 2.558788 18.87106-10.235151 35.823029-28.466514 38.381817z m-189.989992 19.190908c0 128.898934-102.351511 234.129081-228.371809 234.129081s-228.371809-104.910299-228.371809-234.129081c0-128.898934 102.671359-234.129081 228.371809-234.129081 126.020298 0 228.371809 104.910299 228.371809 234.129081z m-228.371809-166.641054c-89.557572 0-162.483024 74.524694-162.483024 166.321206s72.925452 166.321205 162.483024 166.321205 162.483024-74.524694 162.483023-166.321205c0-91.476663-72.925452-166.321205-162.483023-166.321206z"  horiz-adv-x="1024" />
      
      <glyph glyph-name="gitlab" unicode="&#59023;" d="M1022.440107 335.786667L883.77344 806.4c-9.813333 29.013333-32.426667 46.506667-61.44 46.506667-29.866667 0-53.76-17.066667-63.146667-44.8L668.306773 537.6H355.560107L264.680107 808.533333c-8.96 27.306667-33.28 44.373333-63.146667 44.373334-29.44 0-53.76-18.773333-61.44-46.506667L1.85344 335.786667c-5.546667-18.773333 1.706667-39.68 17.066667-51.626667l468.053333-351.146667c3.413333-4.693333 7.68-8.106667 13.226667-9.813333l11.093333-8.106667 10.666667 8.106667c6.4 2.133333 11.52 5.973333 14.933333 11.093333l467.626667 349.866667c16.213333 11.52 23.466667 32.853333 17.92 51.626667zM816.360107 791.466667c1.28 2.133333 3.84 2.56 4.266666 2.56 1.28 0 2.986667-0.426667 4.266667-3.84l75.52-253.866667h-169.386667l85.333334 255.146667z m-619.093334-1.28c1.28 2.986667 2.986667 3.413333 4.266667 3.413333 3.413333 0 3.84 0 4.266667-2.133333l85.333333-255.573334H123.880107l73.386666 254.293334zM63.29344 327.253333l35.84 123.733334 256.853333-343.04-292.693333 219.306666z m93.866667 148.053334h154.88l115.2-360.96c0.426667 0-270.08 360.96-270.08 360.96z m355.84-423.68L376.89344 475.306667h272.213333l-136.106666-423.68z m200.533333 423.68h151.893333l-267.093333-356.693334 115.2 356.693334z m-51.626667-373.333334l263.253334 351.573334 37.546666-125.866667-300.8-225.706667z"  horiz-adv-x="1024" />
      
      <glyph glyph-name="line" unicode="&#59021;" d="M824.746667 156.58666700000003c78.506667 0 142.08-64 142.08-142.08S902.826667-128 824.746667-128C746.24-128 682.666667-64 682.666667 14.080000000000041s63.573333 142.506667 142.08 142.506667z m0-199.253334c31.146667 0 56.746667 25.6 56.746666 56.746667s-25.6 56.746667-56.746666 56.746667-56.746667-25.173333-56.746667-56.746667 25.173333-56.746667 56.746667-56.746667z m-119.04 14.08H284.586667c-125.44 0-227.413333 101.973333-227.413334 227.413334S159.146667 426.666667 284.586667 426.666667h454.826666c78.506667 0 142.08 64 142.08 142.08s-63.573333 142.08-142.08 142.08H334.933333a143.104 143.104 0 0 0-135.68-99.413334c-78.506667 0-142.08 64-142.08 142.08S121.173333 896 199.253333 896c63.573333 0 117.333333-41.813333 135.68-99.413333h404.48c125.44 0 227.413333-101.973333 227.413334-227.413334S864.853333 341.33333300000004 739.413333 341.33333300000004H284.586667c-78.506667 0-142.08-64-142.08-142.08s63.573333-142.08 142.08-142.08h421.12M199.253333 810.666667c-31.146667 0-56.746667-25.6-56.746666-56.746667s25.6-56.746667 56.746666-56.746667S256 722.346667 256 753.92 230.826667 810.666667 199.253333 810.666667z"  horiz-adv-x="1024" />
      
      <glyph glyph-name="monitor2" unicode="&#59020;" d="M846.503043 124.58393000000001a262.951818 262.951818 0 0 1 47.786149 228.264194l-68.265927 266.663778c-12.799861 49.919459-34.132964 95.99896-63.145983 136.531854-32.426315 45.652839-71.679223 80.639126-116.052076 104.958863-43.519529 23.466412-89.599029 35.41295-137.385178 34.986288-47.786149-0.426662-94.292312-12.799861-137.385179-37.119598-44.372853-25.173061-83.199099-61.439334-115.625414-107.945497-27.306371-39.67957-47.359487-84.052423-59.306024-132.265234l-67.412603-266.663778a263.890475 263.890475 0 0 1 48.212811-227.837532c23.466412-30.293005 52.479431-54.612742 84.905747-72.532547L201.816694-8.534627999999998c-20.053116-20.479778-26.026385-49.492797-15.359834-75.519181 11.519875-26.879709 37.119598-43.946191 66.559279-43.946191h517.967722c29.013019 0 55.039404 17.066482 66.132617 43.946191 11.093213 26.453047 5.119945 55.466066-15.359834 75.519181l-60.58601 60.586011c32.852977 17.919806 61.865996 42.239542 85.332409 72.532547z m-63.145983-171.518142c5.973269-5.973269 4.693282-12.799861 3.413297-16.213157a16.213158 16.213158 0 0 0-15.786496-10.239889H253.016139a16.213158 16.213158 0 0 0-15.786496 10.239889c-1.279986 3.413296-2.986634 10.239889 3.413297 16.213157l64.425968 64.852631h413.862184l64.425968-64.852631z m-157.438294 119.038711H398.081234c-70.399237 0-135.251868 31.146329-177.49141 85.759071a209.405731 209.405731 0 0 0-38.399584 180.904707l67.412603 266.663777c10.666551 41.81288 28.159695 80.212464 52.052769 114.345428 52.906094 76.799168 128.851937 121.172021 208.63774 121.598683H512c78.505816 0 153.598336-42.666204 206.931092-116.9054 25.173061-35.41295 43.519529-75.09252 54.612741-118.185386l68.265927-266.663778c16.213158-63.145983 2.13331-129.278599-37.972922-180.904707-42.666204-55.039404-107.518835-86.612395-177.918072-86.612395zM512 748.790501c-133.118558 0-241.917379-108.372159-241.917379-241.917379s108.372159-241.917379 241.917379-241.917379 241.917379 108.372159 241.917379 241.917379S645.54522 748.790501 512 748.790501z m0-429.222016c-103.252215 0-187.304638 84.052423-187.304638 187.304637S408.747785 694.17776 512 694.17776s187.304638-84.052423 187.304638-187.304638-84.052423-187.304638-187.304638-187.304637z m0-75.09252c-14.933172 0-27.306371-12.373199-27.306371-27.306371v-110.50547c0-14.933172 12.373199-27.306371 27.306371-27.30637s27.306371 12.373199 27.306371 27.30637v110.50547c0 14.933172-12.373199 27.306371-27.306371 27.306371zM512 607.992027c-46.932825 0-84.905747-37.972922-84.905747-84.905747s37.972922-84.905747 84.905747-84.905747 84.905747 37.972922 84.905747 84.905747S558.932825 607.992027 512 607.992027z m0-145.491757c-33.279639 0-60.58601 27.306371-60.58601 60.58601s27.306371 60.58601 60.58601 60.58601c33.279639 0 60.58601-27.306371 60.58601-60.58601s-27.306371-60.58601-60.58601-60.58601z"  horiz-adv-x="1024" />
      
      <glyph glyph-name="api" unicode="&#59019;" d="M791.46089071 272.97607688999994a37.4323716 37.4323716 0 0 0-25.58907832 10.06855274c-15.19112775 14.13655362-16.04656021 37.91206505-1.90750165 53.10194032l105.92583378 113.82261512c60.27730276 64.77239365 30.58891195 210.59168949-35.56620121 272.15652455l-2.22437488 2.07032189c-32.91348389 30.63024323-87.55595412 51.97347088-142.60046508 55.69704435-56.43975511 3.81876071-104.33645784-10.67224005-131.4034429-39.76070092L452.16982665 626.3097598300001c-14.13780608-15.19112775-37.91206505-16.04656021-53.1031928-1.90875411-15.19112775 14.13780608-16.04656021 37.91206505-1.90875411 53.10319279l105.9258338 113.82261511c42.56120894 45.73620347 112.35598056 68.89800786 191.48786631 63.54247466 72.53766631-4.90715133 143.08892579-33.19278322 188.72493218-75.66381478l2.22437489-2.07032189c45.63600642-42.46852665 78.91270467-110.80793587 89.01507389-182.80579049 11.02042485-78.54197553-7.07140797-149.81966373-49.6326169-195.5558672l-105.92708626-113.82136264c-7.40205829-7.9518897-17.44681422-11.97605438-27.51536694-11.97605439zM790.41132644 272.29348439a37.4386339 37.4386339 0 0 0-25.58907834 10.06855272L398.45918913 623.30635277c-15.19112775 14.13780608-16.04530773 37.91206505-1.9087541 53.10319279 14.13780608 15.19112775 37.91206505 16.04656021 53.10319279 1.90875412l366.36431143-340.94556813c15.19112775-14.13655362 16.04656021-37.91206505 1.90750165-53.10194033-7.39955336-7.95314216-17.44430928-11.97730684-27.51411446-11.97730683z m70.04401181 442.57795761a37.4386339 37.4386339 0 0 0-25.58907832 10.06855272c-15.19112775 14.13655362-16.04656021 37.91206505-1.90750165 53.10319281l94.34054798 101.37187712c14.13655362 15.18862282 37.91206505 16.04656021 53.10194033 1.90750165 15.19112775-14.13655362 16.04656021-37.91206505 1.90750165-53.10319279l-94.34054798-101.37187713c-7.40080582-7.9518897-17.44305681-11.97605438-27.51286201-11.97605438zM367.53962688-82.57822351000004c-7.32190064 0-14.73773603 0.25049266-22.24374877 0.7577403-72.53766631 4.9084038-143.08892579 33.19403568-188.72618466 75.66506726l-2.22437488 2.06906943c-45.63475394 42.46852665-78.91145221 110.80793587-89.01382144 182.80579049-11.02042485 78.54322798 7.0701555 149.82091618 49.63261691 195.55711965l105.92458134 113.82136265c14.13780608 15.18987529 37.91206505 16.04656021 53.10319279 1.90750164 15.19112775-14.13780608 16.04530773-37.91331752 1.90875413-53.10319278l-105.92458135-113.82136264c-27.06948998-29.08846088-38.08615745-77.89946184-30.22569758-133.9208942 7.66632806-54.63620791 32.87590999-107.60538713 65.79064636-138.23563038l2.22437486-2.07032188c32.91473636-30.6314957 87.55720658-51.97472333 142.60171754-55.69954928 56.43975511-3.81750824 104.33520537 10.67349251 131.40469537 39.76070093l105.92583379 113.82261511c14.1340487 15.19112775 37.91206505 16.04781267 53.10194034 1.90750165 15.19112775-14.13655362 16.04656021-37.91206505 1.90750165-53.10194033l-105.92458134-113.82261511c-38.52201469-41.39641803-99.36543088-64.29771006-169.24286506-64.29896251zM615.80290846 84.66571007000005a37.4386339 37.4386339 0 0 0-25.58907833 10.06855273L223.8495187 435.67857845c-15.19112775 14.13780608-16.04656021 37.91206505-1.90875411 53.1031928 14.13655362 15.18987529 37.91331752 16.04530773 53.10319278 1.90875412L641.40952127 149.74746216999995c15.19112775-14.13780608 16.04656021-37.91331752 1.90750165-53.1031928-7.40080582-7.95439463-17.44430928-11.97855931-27.51411446-11.9785593zM85.05528968-118.34106148000001a37.4386339 37.4386339 0 0 0-25.58907833 10.06855271c-15.19112775 14.13655362-16.04656021 37.91206505-1.9087541 53.10194035l94.33929551 101.37187711c14.13655362 15.19112775 37.91331752 16.04781267 53.1031928 1.90750167 15.19112775-14.13655362 16.04656021-37.91206505 1.90875411-53.10194033l-94.33929552-101.37187714c-7.40080582-7.9518897-17.44556174-11.97605438-27.51411447-11.97605437zM358.85254121 338.72288702000003a37.44364376 37.44364376 0 0 0-25.58907832 10.06730027c-15.19112775 14.13780608-16.04656021 37.91331752-1.90875414 53.1031928l87.7175219 94.2578854c14.13655362 15.19112775 37.91206505 16.04530773 53.1031928 1.90875411 15.19112775-14.13655362 16.04656021-37.91206505 1.90875411-53.10319279l-87.71752189-94.25788541c-7.40080582-7.9518897-17.44556174-11.97605438-27.51411446-11.97605438z m173.3985384-161.36988056a37.4386339 37.4386339 0 0 0-25.58907833 10.06855273c-15.19112775 14.13655362-16.04530773 37.91331752-1.90750165 53.10194032l87.72127928 94.25913788c14.13655362 15.19112775 37.91081258 16.04781267 53.10194032 1.90750166 15.19112775-14.13655362 16.04656021-37.91331752 1.90750166-53.1031928l-87.72127928-94.25788541c-7.39955336-7.9518897-17.44305681-11.97605438-27.512862-11.97605438z"  horiz-adv-x="1024" />
      
      <glyph glyph-name="yishitubiao-" unicode="&#59011;" d="M120.736 853.344v-938.656l782.496 469.344L120.736 853.376z"  horiz-adv-x="1024" />
      
      <glyph glyph-name="task-control" unicode="&#59012;" d="M426.666667-54.613333c19.626667 0 35.84-16.213333 35.84-36.693334s-15.786667-36.693333-35.84-36.693333H110.08C49.066667-128 0-75.946667 0-12.8V780.8C0 844.373333 49.066667 896 110.08 896h633.173333C804.266667 896 853.333333 844.373333 853.333333 780.8v-208.64c0-20.48-15.786667-36.693333-35.84-36.693333a36.266667 36.266667 0 0 0-35.84 36.693333V780.8c0 23.466667-17.493333 42.24-39.253333 42.24H110.08c-20.906667 0-39.253333-18.346667-39.253333-42.24v-792.746667c0-23.466667 17.493333-42.24 39.253333-42.24H426.666667zM741.546667-128c-156.16 0-282.453333 126.293333-282.453334 282.453333s126.293333 282.453333 282.453334 282.453334S1024 310.613333 1024 154.453333 897.706667-128 741.546667-128z m0 88.32c116.906667 0 212.053333 94.72 212.053333 212.053333S858.453333 384 741.546667 384s-212.053333-94.72-212.053334-212.053333 95.146667-211.626667 212.053334-211.626667z m17.493333 229.546667h87.466667c19.626667 0 35.413333-15.786667 35.413333-35.413334s-15.786667-35.413333-35.413333-35.413333h-122.88c-19.626667 0-35.413333 15.786667-35.413334 35.413333V260.266667c0 19.626667 15.786667 35.413333 35.413334 35.413333s35.413333-15.786667 35.413333-35.413333v-70.4z m-512 370.773333c-19.626667 0-35.413333 15.786667-35.413333 35.413333s15.786667 35.413333 35.413333 35.413334h353.28c19.626667 0 35.413333-15.786667 35.413333-35.413334s-15.786667-35.413333-35.413333-35.413333H247.04z m0-282.453333c-19.626667 0-35.413333 15.786667-35.413333 35.413333s15.786667 35.413333 35.413333 35.413333h70.826667c19.626667 0 35.413333-15.786667 35.413333-35.413333s-15.786667-35.413333-35.413333-35.413333H247.04z"  horiz-adv-x="1024" />
      
      <glyph glyph-name="trash" unicode="&#59013;" d="M793.6 793.6h-179.2v25.6c0 42.336-34.464 76.8-76.8 76.8h-102.4a76.896 76.896 0 0 1-76.8-76.8v-25.6H179.2a76.896 76.896 0 0 1-76.8-76.8v-51.2c0-33.376 21.408-61.856 51.2-72.384V-51.2c0-42.336 34.464-76.8 76.8-76.8h512c42.336 0 76.8 34.464 76.8 76.8V593.216A76.896 76.896 0 0 1 870.4 665.6V716.8c0 42.336-34.464 76.8-76.8 76.8z m-384 25.6a25.6 25.6 0 0 0 25.6 25.6h102.4a25.6 25.6 0 0 0 25.6-25.6v-25.6h-153.6v25.6z m332.8-896h-512a25.6 25.6 0 0 0-25.6 25.6v640H768v-640a25.6 25.6 0 0 0-25.6-25.6z m76.8 742.4a25.6 25.6 0 0 0-25.6-25.6H179.2a25.6 25.6 0 0 0-25.6 25.6V716.8a25.6 25.6 0 0 0 25.6 25.6h614.4a25.6 25.6 0 0 0 25.6-25.6v-51.2z m-179.2-128a25.6 25.6 0 0 1-25.6-25.6v-512a25.6 25.6 0 1 1 51.2 0V512a25.6 25.6 0 0 1-25.6 25.6z m-153.6 0a25.6 25.6 0 0 1-25.6-25.6v-512a25.6 25.6 0 1 1 51.2 0V512a25.6 25.6 0 0 1-25.6 25.6z m-153.6 0a25.6 25.6 0 0 1-25.6-25.6v-512a25.6 25.6 0 1 1 51.2 0V512a25.6 25.6 0 0 1-25.6 25.6z"  horiz-adv-x="1024" />
      
      <glyph glyph-name="view" unicode="&#59014;" d="M1182.84 219.968C1044.088 6.784 841.08-128 614.424-128S184.76 6.752 46.008 219.968c-61.344 94.112-61.344 233.984 0 328.096C184.76 761.248 387.768 896.032 614.424 896.032S1044.152 761.28 1182.84 548.064c61.28-94.112 61.28-233.984 0-328.096z m-61.536 250.816C992.6 681.824 807.352 802.88 613.08 802.88c-194.304 0-379.552-121.024-508.224-332.096-30.72-50.336-30.72-123.296 0-173.568 128.672-211.104 313.92-332.128 508.224-332.128 194.24 0 379.488 121.024 508.224 332.128 30.656 50.272 30.656 123.232 0 173.568z m-506.432-412.48c-158.368 0-286.784 145.92-286.784 325.952s128.416 325.952 286.784 325.952 286.784-145.92 286.784-325.952-128.416-325.952-286.784-325.952z m0 558.752c-113.152 0-204.8-104.192-204.8-232.8 0-128.576 91.648-232.8 204.8-232.8s204.8 104.256 204.8 232.8c0 128.608-91.648 232.8-204.8 232.8z"  horiz-adv-x="1228" />
      
      <glyph glyph-name="stop" unicode="&#59015;" d="M256 682.656h512q42.656 0 42.656-42.656v-512q0-42.656-42.656-42.656H256q-42.656 0-42.656 42.656V640q0 42.656 42.656 42.656z"  horiz-adv-x="1024" />
      
      <glyph glyph-name="test" unicode="&#59016;" d="M535.893333 253.013333h226.986667c20.053333 0 37.12-17.493333 37.12-38.4s-17.066667-41.386667-37.12-41.386666h-226.986667c-20.053333 0-37.12 17.493333-37.12 38.4 0 20.906667 17.493333 41.386667 37.12 41.386666zM547.413333 597.333333h224.853334c20.053333 0 36.693333-19.626667 36.693333-42.666666s-17.066667-42.666667-36.693333-42.666667h-224.853334c-20.053333 0-36.693333 19.626667-36.693333 42.666667s17.066667 42.666667 36.693333 42.666666z m-332.8-29.013333c5.546667 5.546667 17.066667 5.546667 25.6 0l62.293334-64.426667 136.533333 141.653334c8.533333 8.96 23.04 8.96 28.586667 0 8.533333-8.96 8.533333-20.906667 0-29.44l-147.2-153.173334c-5.546667-2.986667-11.52-5.546667-17.066667-5.546666s-8.533333 2.986667-11.52 5.546666L217.6 538.453333c-11.52 11.946667-11.52 23.893333-2.986667 29.866667zM426.666667 122.026667c-8.533333-8.96-23.04-8.96-28.586667 0l-59.733333 61.866666-59.306667-61.866666c-8.533333-8.96-23.04-8.96-28.16 0-8.533333 8.96-8.533333 23.893333 0 29.44L310.186667 213.333333l-59.306667 61.44c-8.533333 8.96-8.533333 23.893333 0 29.44 8.533333 8.96 20.053333 8.96 28.586667 0l59.306666-61.866666 59.306667 61.866666c8.533333 8.96 23.04 8.96 28.586667 0 8.533333-8.96 8.533333-20.906667 0-29.44L366.933333 213.333333l59.306667-61.866666c9.386667-5.973333 9.386667-20.48 0.426667-29.44zM877.653333 896H146.346667c-40.106667 0-73.386667-32.853333-73.386667-72.96v-877.653333c0-40.106667 32.853333-72.96 72.96-72.96h731.306667c40.106667 0 72.96 32.853333 72.96 72.96V823.04C951.04 863.146667 917.76 896 877.653333 896z m0-914.346667c0-21.76-18.346667-36.693333-36.693333-36.693333H183.04a36.693333 36.693333 0 0 0-36.693333 36.693333V786.346667c0 21.76 18.346667 36.693333 36.693333 36.693333h658.346667c18.346667 0 36.693333-14.506667 36.693333-36.693333v-804.693334z"  horiz-adv-x="1024" />
      
      <glyph glyph-name="word" unicode="&#59017;" d="M928.851249 630.60954l-262.398688 255.99872a31.530509 31.530509 0 0 1-23.039885 9.38662H183.894974C128.428585 895.99488 85.335467 854.60842 85.335467 799.99536v-831.99584C85.335467-86.186876 128.428585-128 183.894974-128h656.210052C895.99808-128 938.664533-86.186876 938.664533-32.00048v639.9968c0 9.813284-3.413316 15.786588-9.813284 22.61322z m-252.585404 156.585884L826.878426 639.99616h-151.039245c0.426665 0 0.426665 147.199264 0.426664 147.199264z m196.69235-819.195904c0-19.199904-16.639917-31.99984-32.853169-31.99984H183.894974c-19.626569 0-32.853169 16.213252-32.853169 31.99984V799.99536c0 19.199904 16.213252 31.99984 32.853169 31.99984h426.664533v-223.99888c0-19.199904 13.226601-31.99984 32.853169-31.99984h229.545519v-607.99696z m-242.772119 201.812324l-69.119655 246.185436h-95.572855l-75.092958-243.198784-58.879706 243.198784H249.601312l95.146191-351.99824h88.746223L512 326.397728l78.932939-262.398688h85.332906l95.146191 351.99824h-127.572695v-63.99968h32.853169l-46.506434-182.185756z"  horiz-adv-x="1024" />
      
      <glyph glyph-name="task" unicode="&#59018;" d="M720.213333 619.52h-283.733333c-22.186667 0-40.533333-17.493333-40.533333-39.253333s18.346667-39.253333 40.533333-39.253334h283.733333c22.186667 0 40.533333 17.493333 40.533334 39.253334s-18.346667 39.253333-40.533334 39.253333m0-196.266667h-283.733333c-22.186667 0-40.533333-17.493333-40.533333-39.253333s18.346667-39.253333 40.533333-39.253333h283.733333c22.186667 0 40.533333 17.493333 40.533334 39.253333 0 21.333333-18.346667 39.253333-40.533334 39.253333m0-196.266666h-283.733333c-22.186667 0-40.533333-17.493333-40.533333-39.253334s18.346667-39.253333 40.533333-39.253333h283.733333c22.186667 0 40.533333 17.493333 40.533334 39.253333s-18.346667 39.253333-40.533334 39.253334m-416.426666 392.533333c-22.186667 0-40.533333-17.493333-40.533334-39.253333s18.346667-39.253333 40.533334-39.253334 40.533333 17.92 40.533333 39.253334-18.346667 39.253333-40.533333 39.253333m0-196.266667c-22.186667 0-40.533333-17.493333-40.533334-39.253333s18.346667-39.253333 40.533334-39.253333 40.533333 17.493333 40.533333 39.253333c0 21.333333-18.346667 39.253333-40.533333 39.253333m0-196.266666c-22.186667 0-40.533333-17.493333-40.533334-39.253334s18.346667-39.253333 40.533334-39.253333 40.533333 17.493333 40.533333 39.253333-18.346667 39.253333-40.533333 39.253334M877.653333 896H146.346667c-40.106667 0-73.386667-32.853333-73.386667-72.96v-877.653333c0-40.106667 32.853333-72.96 72.96-72.96h731.306667c40.106667 0 72.96 32.853333 72.96 72.96V823.04C951.04 863.146667 917.76 896 877.653333 896z m0-914.346667c0-21.76-18.346667-36.693333-36.693333-36.693333H183.04a36.693333 36.693333 0 0 0-36.693333 36.693333V786.346667c0 21.76 18.346667 36.693333 36.693333 36.693333h658.346667c18.346667 0 36.693333-14.506667 36.693333-36.693333v-804.693334z"  horiz-adv-x="1024" />
      
      <glyph glyph-name="auth" unicode="&#58986;" d="M523.946667-128h-28.16c-16.213333 8.533333-393.813333 156.16-444.586667 481.706667V654.933333c-1.706667 46.933333 28.16 89.173333 72.533333 103.68L505.173333 896h23.893334l371.2-137.386667a107.093333 107.093333 0 0 0 72.96-103.68v-293.546666c-50.773333-333.653333-428.373333-481.706667-444.586667-487.253334l-4.693333-2.133333z m-12.373334 60.16c43.52 17.92 361.386667 158.293333 401.066667 433.066667V654.933333c0 20.48-13.653333 37.973333-33.28 43.946667l-369.066667 136.533333L145.066667 701.866667c-19.626667-5.12-33.28-22.613333-33.706667-42.666667v-297.386667c41.386667-271.36 357.546667-410.88 400.213333-429.653333zM576.853333 431.36h34.56v38.4h8.106667c10.24 0 16.213333 8.106667 16.213333 18.346667C627.2 550.826667 572.586667 597.333333 509.866667 597.333333S392.533333 548.693333 384.426667 488.106667c-1.706667-10.24 6.4-18.346667 16.213333-18.346667h8.106667v-38.4h34.56c0-70.826667-50.346667-127.573333-113.066667-127.573333v-58.453334h363.946667v58.453334c-66.986667 0.426667-117.333333 56.746667-117.333334 127.573333z m-240.64-216.32h343.893334V170.666667H336.213333v44.373333z"  horiz-adv-x="1024" />
      
      <glyph glyph-name="debug-step-over" unicode="&#58987;" d="M512 298.656a85.344 85.344 0 1 0 0-170.688 85.344 85.344 0 1 0 0 170.688m488.96 219.328L933.12 224 640 291.84l162.144 101.536c-60.96 97.44-167.68 161.28-289.312 161.28h-0.864H512c-168.544 0-308.48-122.016-336.224-282.88l-84.064 14.944C126.272 487.264 301.216 640 511.968 640c152.736 0 287.136-80.64 362.656-201.376l126.304 79.36z"  horiz-adv-x="1024" />
      
      <glyph glyph-name="app" unicode="&#58988;" d="M942.933333 652.373333L529.066667 891.306667a34.730667 34.730667 0 0 1-34.133334 0l-413.866666-238.933334c-10.666667-5.973333-17.066667-17.066667-17.066667-29.44v-477.866666c0-12.373333 6.4-23.466667 17.066667-29.44l413.866666-238.933334c5.12-2.986667 11.093333-4.693333 17.066667-4.693333s11.946667 1.706667 17.066667 4.693333l413.866666 238.933334c10.666667 5.973333 17.066667 17.066667 17.066667 29.44V622.933333c0 12.373333-6.4 23.466667-17.066667 29.44z m-50.773333-487.68L512-54.613333l-380.16 219.306666V603.306667L512 822.613333l380.16-219.306666v-438.613334zM228.693333 535.466667c-9.386667-16.64-3.84-37.12 12.373334-46.506667l236.373333-136.533333v-270.08c0-18.773333 14.933333-34.133333 34.133333-34.133334s34.133333 14.933333 34.133334 34.133334v269.653333l237.226666 136.96c16.213333 9.386667 21.76 30.293333 12.373334 46.506667s-30.293333 21.76-46.506667 12.373333L512 411.306667l-236.8 136.533333a34.133333 34.133333 0 0 1-46.506667-12.373333z"  horiz-adv-x="1024" />
      
      <glyph glyph-name="binary" unicode="&#58989;" d="M71.104-128V896h661.344l220.448-219.424V-128H71.104z m808.32 731.424l-220.448 219.456H144.576v-877.76h734.848V603.424zM438.528 384H218.08V676.576h220.448V384z m-73.504 219.424H291.552v-146.304h73.472V603.424z m0-512h73.504v-73.12H218.08v73.12h73.472v146.304H218.08v73.184h146.944v-219.456z m293.952 365.696h73.472V384H512v73.12h73.472V603.424H512V676.576h146.976v-219.456z m73.472-438.816H512v292.576h220.448v-292.576z m-73.472 219.392h-73.504v-146.304h73.504v146.304z"  horiz-adv-x="1024" />
      
      <glyph glyph-name="copy" unicode="&#58990;" d="M912.64 828.416H278.464c-24.544 0-44.416-19.872-44.416-44.416v-634.304c0-24.768 19.84-44.608 44.544-44.608h634.176c24.768 0 44.544 19.84 44.544 44.608V783.808c1.024 24.768-19.84 44.608-44.544 44.608zM274.432 144.64V788.224H919.04v-643.52H274.368z m499.52-76.288h-9.856c13.888 0 25.792-10.88 23.808-24.768v-59.392c0-24.832-19.84-44.608-44.608-44.608H108.928A44.384 44.384 0 0 0 64.512-16V618.368c0 24.768 19.84 44.544 44.608 44.544h67.392c13.824 0 20.16-4.8 20.16-18.624 0-13.888-6.336-23.488-20.16-23.488H102.4v-640h649.216v62.848c0 13.888 8.384 24.768 22.272 24.768zM568.32 512V640h44.8v-128h128v-44.8h-128v-128h-44.8v128h-128V512h128z"  horiz-adv-x="1024" />
      
      <glyph glyph-name="debuger" unicode="&#58991;" d="M745.6 640c-19.2 25.6-41.6 48-70.4 67.2L729.6 800c6.4 9.6 3.2 19.2-6.4 22.4-6.4 6.4-19.2 3.2-22.4-6.4l-54.4-92.8c-60.8 35.2-134.4 54.4-201.6 54.4-64 0-134.4-16-192-48L198.4 822.4c-3.2 9.6-16 9.6-22.4 6.4s-12.8-16-6.4-25.6L224 713.6c-28.8-19.2-57.6-44.8-76.8-73.6-28.8-41.6-41.6-92.8-48-147.2h704c-3.2 54.4-28.8 105.6-57.6 147.2zM268.8 540.8c-22.4 0-44.8 22.4-44.8 44.8 0 25.6 19.2 44.8 44.8 44.8s44.8-19.2 44.8-44.8c0-22.4-19.2-44.8-44.8-44.8z m403.2 28.8s-35.2 22.4-64 22.4c-32 0-64-22.4-64-22.4-9.6 0-16 6.4-16 16s3.2 12.8 9.6 16c0 0 41.6 22.4 70.4 22.4 32 0 70.4-22.4 70.4-22.4 6.4-3.2 9.6-6.4 9.6-16-3.2-9.6-9.6-16-16-16zM96 460.8v-179.2C96 92.8 249.6-64 438.4-64h16c188.8 0 352 153.6 352 345.6v179.2H96z m-70.4 0c-12.8 0-25.6-12.8-25.6-25.6v-195.2c0-12.8 9.6-25.6 25.6-25.6h35.2v246.4H25.6z m886.4-83.2v172.8c0 12.8 0 22.4-12.8 22.4V656H1024l-57.6 92.8h-57.6l-9.6 3.2-12.8 16-12.8-16-9.6-3.2h-80v-92.8H864V576c-9.6 0-12.8-12.8-12.8-22.4v-185.6c0-12.8 12.8-22.4 22.4-22.4h12.8c12.8 0 22.4 12.8 22.4 22.4l3.2 9.6z"  horiz-adv-x="1024" />
      
      <glyph glyph-name="f27e" unicode="&#58992;" d="M0 822.848h877.728v-877.728H0V822.848z m620-637.12l-126.272 360.576 126.272 169.728H257.728L384 546.304 257.728 185.728l181.152-173.728z"  horiz-adv-x="1024" />
      
      <glyph glyph-name="degraded" unicode="&#58993;" d="M627.2 635.306667c48.64 0 87.893333-43.946667 87.893333-97.706667v-130.56c0-17.92 13.226667-32.426667 29.44-32.426667h178.773334c17.493333 0 34.133333-8.533333 44.8-23.893333 20.48-27.733333 16.64-68.693333-7.68-91.306667l-392.533334-364.8c-32.426667-29.866667-78.933333-29.866667-110.933333 0l-392.533333 364.373334c-25.173333 23.466667-28.16 64.426667-7.253334 92.16 11.093333 14.506667 27.306667 23.04 44.373334 23.466666h178.773333c16.213333 0 29.44 14.933333 29.44 32.426667V537.6c0 53.76 39.68 97.706667 87.893333 97.706667h229.546667z m0-65.28H396.8c-16.213333 0-29.44-14.933333-29.44-32.426667v-130.56l-0.426667-9.386667c-4.266667-49.92-42.24-88.32-87.466666-88.32H101.12l392.533333-364.8c10.666667-9.386667 25.6-9.386667 35.84 0l392.533334 364.8h-178.346667c-48.64 0-87.893333 43.946667-87.893333 97.706667V537.6c0.426667 17.493333-12.8 32.426667-28.586667 32.426667z m31.573333 195.413333c16.213333 0 29.44-14.933333 29.44-32.426667s-13.226667-32.426667-29.44-32.426666H365.226667c-16.213333 0-29.44 14.933333-29.44 32.426666s13.226667 32.426667 29.44 32.426667h293.546666z m0 130.56c16.213333 0 29.44-14.933333 29.44-32.426667s-13.226667-32.426667-29.44-32.426666H365.226667c-16.213333 0-29.44 14.933333-29.44 32.426666S349.44 896 365.226667 896h293.546666z"  horiz-adv-x="1024" />
      
      <glyph glyph-name="edit-outline" unicode="&#58994;" d="M307.936 186.816l55.616 121.92 70.208-67.776-125.824-54.112z m95.808 171.648l366.4 352.864 82.016-80.128-365.728-352.096-82.688 79.328z m550.048 370.88L903.296 680.96 821.44 761.088l49.696 47.584c8 7.968 23.424 6.528 32.16-2.144l48.288-46.176a25.536 25.536 0 0 0 8.064-18.048 17.888 17.888 0 0 0-5.856-12.96z m-640-363.648c-0.736-0.768-1.472-1.472-2.208-2.88l-51.936-184.032a31.04 31.04 0 0 1 8.064-30.304c6.592-5.792 14.624-9.28 23.392-9.28 2.944 0 5.12 0.704 8.032 1.408l190.144 49.76h1.088a8 8 0 0 1 5.504 2.176L1003.584 681.76c15.296 14.4 23.36 33.888 23.36 55.552 0 24.512-10.912 49.024-29.216 67.072L949.44 850.56c-19.008 18.048-43.936 28.864-69.568 28.864-22.592 0-43.136-7.936-57.696-23.072L314.496 367.936c-0.704-0.704-0.704-1.472-0.704-2.176zM100.928 896C45.344 896 0 851.296 0 796.448V-27.52c0-54.816 45.344-99.552 100.928-99.552h806.08c55.584 0 100.864 44.736 100.864 99.552V498.464h-86.304V46.72c0-49.056-40.224-87.936-89.216-87.936H175.52c-48.992 0-89.216 38.88-89.216 87.936V722.848c0 48.352 40.224 88.032 89.216 88.032h457.888V896H100.896z"  horiz-adv-x="1026" />
      
      <glyph glyph-name="flow" unicode="&#58995;" d="M859.733333 389.546667c-6.4 16.64-24.746667 24.746667-41.386666 18.346666s-24.746667-24.746667-18.346667-41.386666c0-0.426667 0.426667-0.853333 0.426667-1.28A312.192 312.192 0 0 0 512-64.426667c-171.946667 0-311.466667 139.52-311.466667 311.466667 0 58.453333 16.64 114.346667 47.36 163.413333L512 806.826667l165.12-247.04c9.813333-14.506667 29.44-18.773333 44.373333-8.96 14.506667 9.813333 18.773333 29.866667 8.96 44.373333L544 874.24c-0.853333 1.706667-2.56 2.56-3.84 3.84a30.122667 30.122667 0 0 1-10.666667 12.373333 31.829333 31.829333 0 0 1-44.373333-8.96L210.346667 470.186667l-2.56-2.56c-4.266667-5.973333-7.253333-12.373333-11.093334-18.346667l-3.84-5.546667c-0.426667-0.426667-0.426667-1.28-0.426666-1.706666a369.109333 369.109333 0 0 1-55.466667-194.56 376.021333 376.021333 0 0 1 375.466667-375.466667c207.786667 0.426667 375.893333 168.96 375.466666 376.746667a380.16 380.16 0 0 1-28.16 140.8m-167.68-185.173334a186.88 186.88 0 0 0-122.88-128c-17.066667-5.12-26.453333-23.04-20.906666-40.106666 5.12-17.066667 23.04-26.453333 40.106666-20.906667 81.066667 25.6 143.36 90.453333 165.973334 172.373333a32 32 0 0 1-22.613334 39.253334 32.469333 32.469333 0 0 1-39.68-22.613334"  horiz-adv-x="1024" />
      
      <glyph glyph-name="develop" unicode="&#58996;" d="M0 749.653333v-731.306666c0-40.106667 32.853333-72.96 72.96-72.96h877.653333c40.106667 0 72.96 32.853333 72.96 72.96V749.653333c0 40.106667-32.853333 72.96-72.96 72.96H72.96C32.853333 823.04 0 789.76 0 749.653333z m914.346667 0c21.76 0 36.693333-18.346667 36.693333-36.693333v-658.346667c0-18.346667-14.506667-36.693333-36.693333-36.693333H109.653333c-21.76 0-36.693333 18.346667-36.693333 36.693333V712.96c0 18.346667 14.506667 36.693333 36.693333 36.693333h804.693334zM222.293333 365.226667l95.573334-131.413334c12.373333-17.066667 8.96-40.96-6.826667-54.613333-16.64-12.8-39.68-8.96-52.48 7.68l-112.64 154.88a39.04 39.04 0 0 0 0 46.506667l112.64 154.88c11.093333 16.64 34.56 20.48 51.626667 6.826666 16.64-12.373333 19.2-36.693333 6.826666-53.333333l-94.72-131.413333z m483.84-131.84c-12.373333-17.066667-8.96-40.96 6.826667-54.613334 16.64-12.8 39.68-8.96 52.48 7.68L878.08 341.333333c10.24 13.226667 10.24 33.28 0 46.506667l-112.64 154.88a36.736 36.736 0 0 1-52.48 7.68c-16.64-12.8-19.626667-37.546667-6.826667-54.613333l95.573334-131.413334-95.573334-130.986666z m-195.413333-31.573334c-4.266667-20.906667-23.893333-34.56-43.946667-30.293333a38.357333 38.357333 0 0 0-29.44 45.226667c0 0.426667 0 1.28 0.426667 1.706666l75.093333 347.733334c4.266667 20.906667 23.893333 34.56 43.946667 30.293333 20.48-4.266667 33.706667-24.746667 29.44-45.226667 0-0.426667 0-1.28-0.426667-1.706666l-75.093333-347.733334z"  horiz-adv-x="1024" />
      
      <glyph glyph-name="filter" unicode="&#58997;" d="M977.056 785.056c-8.544 17.056-21.344 25.6-38.4 25.6H85.312c-17.056 0-29.856-8.544-38.4-25.6-8.544-12.8-4.256-29.856 4.256-42.656l332.8-392.544v-264.544c0-17.056 8.544-29.856 25.6-38.4l170.656-85.344c4.256-4.256 8.544-4.256 17.056-4.256s17.056 0 21.344 4.256c12.8 8.544 21.344 21.344 21.344 38.4V349.824l332.8 392.544c8.544 12.8 12.8 29.856 4.256 42.656zM563.2 392.544c-4.256-8.544-8.544-17.056-8.544-29.856v-294.4l-85.344 42.656v251.744c0 8.544-4.256 21.344-8.544 25.6l-281.6 337.056h669.856l-285.856-332.8z"  horiz-adv-x="1024" />
      
      <glyph glyph-name="gateway" unicode="&#58998;" d="M983.04 391.253333c-54.613333 56.746667-141.226667 56.746667-195.84 0-44.8-46.506667-52.053333-115.626667-24.746667-169.813333L631.04 85.333333c-61.866667-64-165.973333-56.746667-235.52 12.8s-74.24 179.626667-12.373333 244.053334l151.04 156.586666-54.613334 56.746667-151.04-156.586667c-91.733333-95.146667-86.613333-256.853333 12.373334-359.68C392.96-14.506667 459.946667-42.666667 526.933333-42.666667c59.306667 0 116.48 23.04 161.28 66.56l131.413334 136.106667c19.626667-10.24 42.24-17.92 66.986666-17.92 34.56 0 72.106667 12.8 96.853334 40.96 54.186667 61.866667 54.186667 154.453333-0.426667 208.213333z m-54.613333-143.786666c-22.186667-23.04-61.866667-23.04-84.48 0s-22.186667 64 0 87.466666c12.373333 12.8 27.306667 17.92 42.24 17.92s29.866667-5.12 42.24-17.92c22.613333-23.466667 22.613333-64.426667 0-87.466666zM261.546667 550.4l131.413333 136.106667c61.866667 64 165.973333 56.746667 235.52-12.8 32.426667-33.706667 52.053333-79.36 54.613333-125.866667 2.56-46.506667-12.373333-87.466667-42.24-117.76l-151.04-156.586667 54.613334-56.746666 151.04 156.586666c44.8 46.506667 66.986667 110.506667 64.426666 177.066667s-29.866667 130.986667-76.8 179.626667c-98.986667 102.4-253.013333 107.946667-347.306666 12.8L204.373333 606.72a135.68 135.68 0 0 1-163.413333-25.6 145.834667 145.834667 0 0 1 0-202.666667c27.306667-28.16 61.866667-40.96 96.853333-40.96s72.106667 12.8 96.853334 40.96c46.933333 49.066667 54.186667 117.76 26.88 171.946667z m-79.36-112.64c-22.186667-23.04-61.866667-23.04-84.48 0s-22.186667 64 0 87.466667c12.373333 12.8 27.306667 17.92 42.24 17.92s29.866667-5.12 42.24-17.92c22.186667-23.466667 22.186667-61.866667 0-87.466667z"  horiz-adv-x="1024" />
      
      <glyph glyph-name="monitor" unicode="&#58999;" d="M0 749.653333v-731.306666c0-40.106667 32.853333-72.96 72.96-72.96h877.653333c40.106667 0 72.96 32.853333 72.96 72.96V749.653333c0 40.106667-32.853333 72.96-72.96 72.96H72.96C32.853333 823.04 0 789.76 0 749.653333z m914.346667 0c21.76 0 36.693333-18.346667 36.693333-36.693333v-658.346667c0-18.346667-14.506667-36.693333-36.693333-36.693333H109.653333c-21.76 0-36.693333 18.346667-36.693333 36.693333V712.96c0 18.346667 14.506667 36.693333 36.693333 36.693333h804.693334zM325.546667 303.786667c-5.12-17.066667-20.48-29.013333-38.826667-29.013334H148.48a40.064 40.064 0 1 0 0 80.213334h107.946667l61.013333 213.333333c10.666667 36.693333 61.866667 39.253333 75.946667 3.84l109.226666-272.64 130.986667 209.92a40.106667 40.106667 0 0 0 55.466667 12.8c5.546667-3.413333 9.813333-7.68 13.226666-13.226667l92.16-153.6h81.066667a40.064 40.064 0 1 0 0-80.213333h-103.68a40.96 40.96 0 0 0-34.56 19.2l-69.973333 116.906667-138.24-221.44a40.234667 40.234667 0 0 0-71.253334 5.973333v0.426667L362.666667 433.066667l-37.12-129.28z"  horiz-adv-x="1024" />
      
      <glyph glyph-name="config" unicode="&#59000;" d="M136.533333 308.053333c-18.773333 0-34.133333 15.786667-34.133333 34.986667V861.013333c0 19.2 15.36 34.986667 34.133333 34.986667s34.133333-15.36 34.133334-34.986667v-518.4c0-19.2-15.36-34.56-34.133334-34.56zM136.533333-128c-18.773333 0-34.133333 15.786667-34.133333 34.986667v226.56c0 19.2 15.36 34.986667 34.133333 34.986666s34.133333-15.786667 34.133334-34.986666v-226.56c0-19.626667-15.36-34.986667-34.133334-34.986667zM512 453.973333c-18.773333 0-34.133333 15.786667-34.133333 34.986667V861.013333c0 19.2 15.36 34.986667 34.133333 34.986667s34.133333-15.786667 34.133333-34.986667v-372.48c0-18.773333-15.36-34.56-34.133333-34.56zM512-128c-18.773333 0-34.133333 15.786667-34.133333 34.986667v372.48c0 19.2 15.36 34.986667 34.133333 34.986666s34.133333-15.786667 34.133333-34.986666v-372.48c0-19.626667-15.36-34.986667-34.133333-34.986667z m375.466667 0c-18.773333 0-34.133333 15.786667-34.133334 34.986667v512c0 19.2 15.36 34.986667 34.133334 34.986666 18.773333 0 34.133333-15.786667 34.133333-34.986666v-512c0-19.626667-15.36-34.986667-34.133333-34.986667z m0 749.653333c-18.773333 0-34.133333 15.786667-34.133334 34.986667V861.44c0 18.773333 15.36 34.56 34.133334 34.56 18.773333 0 34.133333-15.786667 34.133333-34.986667v-204.8c0-19.2-15.36-34.56-34.133333-34.56zM136.533333 98.56c-75.52 0-136.533333 62.293333-136.533333 139.52s61.013333 139.52 136.533333 139.52 136.533333-62.293333 136.533334-139.52-61.013333-139.52-136.533334-139.52z m0 209.493333c-37.546667 0-68.266667-31.573333-68.266666-69.973333s30.72-69.973333 68.266666-69.973333 68.266667 31.573333 68.266667 69.973333c0 38.4-30.72 69.973333-68.266667 69.973333z m375.466667-63.573333c-75.52 0-136.533333 62.293333-136.533333 139.52s61.013333 139.52 136.533333 139.52 136.533333-62.293333 136.533333-139.52-61.013333-139.52-136.533333-139.52z m0 209.493333c-37.546667 0-68.266667-31.573333-68.266667-69.973333s30.72-69.973333 68.266667-69.973333 68.266667 31.573333 68.266667 69.973333-30.72 69.973333-68.266667 69.973333z m375.466667-56.746666c-75.52 0-136.533333 62.293333-136.533334 139.52s61.013333 139.52 136.533334 139.52S1024 613.973333 1024 536.746667s-61.013333-139.52-136.533333-139.52z m0 209.493333c-37.546667 0-68.266667-31.573333-68.266667-69.973333s30.72-69.973333 68.266667-69.973334c37.546667 0 68.266667 31.573333 68.266666 69.973334s-30.72 69.973333-68.266666 69.973333z"  horiz-adv-x="1024" />
      
      <glyph glyph-name="linechart" unicode="&#59001;" d="M888 104H200V728A8 8 0 0 1 192 736H136a8 8 0 0 1-8-8v-688c0-4.384 3.584-8 8-8h752c4.384 0 8 3.616 8 8V96a8.032 8.032 0 0 1-8 8zM305.792 258.304a8 8 0 0 1 11.296 0l138.304 137.6 127.584-128.384a8 8 0 0 1 11.296 0l275.392 275.296a8 8 0 0 1 0 11.296l-39.616 39.616a8 8 0 0 1-11.296 0l-230.016-229.888-127.392 128.192a8 8 0 0 1-11.296 0L266.24 309.344a8 8 0 0 1 0-11.296l39.488-39.712z"  horiz-adv-x="1024" />
      
      <glyph glyph-name="reportform" unicode="&#59002;" d="M926.147122-65.746304H62.22378V774.543967a31.11189 31.11189 0 1 1-62.253695 0v-871.402162A31.11189 31.11189 0 0 1 31.11189-128h895.035232a31.11189 31.11189 0 1 1 0 62.253696zM154.36284 380.529828h186.731171v-373.462343H154.36284V380.529828z m497.939818 124.477476h186.731172v-497.939819h-186.731172V505.007304z m-248.954951 186.731171h186.731171v-684.67099h-186.731171V691.738475z"  horiz-adv-x="1024" />
      
      <glyph glyph-name="home" unicode="&#59003;" d="M806.4-85.333333H199.253333c-40.533333 0-63.573333 17.066667-75.946666 31.146666-27.306667 31.146667-25.173333 73.813333-23.893334 85.333334v363.52h64.426667v-367.786667l-0.426667-1.28c-0.853333-6.4-0.853333-26.453333 8.533334-37.12 2.133333-2.133333 7.68-8.96 27.306666-8.96h605.866667c2.133333 0 22.613333-0.426667 35.413333 11.52 8.533333 8.106667 12.8 21.333333 12.8 39.68v364.8h64.426667v-364.8c0-46.08-18.346667-72.96-33.706667-87.466667-28.16-25.6-63.146667-28.586667-77.653333-28.586666zM131.413333 364.8H32.426667c-13.226667 0-25.6 8.106667-30.293334 20.906667a31.744 31.744 0 0 0 8.96 35.413333L487.68 844.8c11.946667 10.666667 30.293333 10.666667 42.666667 0.426667l482.56-420.266667c10.24-8.533333 13.653333-22.613333 9.386666-35.413333-4.266667-12.373333-16.213333-20.906667-29.44-21.333334l-105.813333-2.986666h-0.853333a32.426667 32.426667 0 0 0-32.426667 31.146666c-0.426667 17.92 13.653333 32.853333 31.146667 33.28l23.04 0.853334-398.933334 347.306666-391.68-348.586666h14.08c17.92 0 32.426667-14.506667 32.426667-32.426667s-14.506667-32-32.426667-32z m268.8-417.706667c-14.933333 0-27.306667 12.373333-27.306666 27.306667v228.266667c0 5.12 1.28 25.173333 20.053333 44.373333 23.04 23.466667 61.866667 35.413333 116.053333 35.413333 52.906667 0 91.733333-11.946667 114.773334-35.84 19.2-20.053333 20.48-40.96 20.48-46.506666v-224.853334c0-14.933333-12.373333-27.306667-27.306667-27.306666-14.933333 0-27.306667 12.373333-27.306667 27.306666v224.426667c0 1.28-1.28 5.973333-8.106666 11.52-7.68 6.4-27.306667 16.64-72.533334 16.64-52.906667 0-71.68-13.226667-77.226666-18.773333-2.56-2.986667-3.84-5.12-4.266667-6.826667v-227.84c0-15.36-12.373333-27.306667-27.306667-27.306667z"  horiz-adv-x="1024" />
      
      <glyph glyph-name="project-audit" unicode="&#59004;" d="M924.586667 192h-16.64c-7.253333 0-12.8 4.693333-14.08 11.52-3.84 22.613333-5.973333 52.053333-3.84 86.186667 0 3.413333 1.28 7.253333 3.84 8.96l0.853333 0.853333c20.053333 20.053333 32 47.786667 32 77.226667 0 30.72-12.8 59.306667-34.133333 79.786666-20.906667 21.333333-49.92 34.133333-81.066667 34.133334-31.573333 0-60.586667-12.8-81.066667-34.133334-21.333333-20.48-34.133333-48.213333-34.133333-79.786666 0-29.44 12.373333-57.173333 32-77.226667l0.853333-0.853333c2.56-2.56 3.84-5.973333 3.84-8.96 1.28-34.133333 0-64.426667-3.84-86.186667-1.28-7.253333-7.253333-11.52-14.08-11.52h-17.92c-54.613333 0-99.84-44.373333-99.84-99.84v-2.56c0-37.973333 30.72-68.693333 68.693334-68.693333h289.28c37.973333 0 68.693333 30.72 68.693333 68.693333v2.56c0 55.466667-44.8 99.84-99.413333 99.84z m-144.213334 136.533333c-0.853333 0.853333-2.133333 1.28-2.56 2.133334s-1.28 1.28-2.133333 2.133333c-14.08 11.093333-22.613333 27.733333-22.613333 45.653333 0 29.013333 21.76 52.906667 49.493333 56.746667h7.68c2.56 0 4.693333 0 7.253333-0.853333 28.16-3.84 49.493333-27.733333 49.493334-56.746667 0-17.92-8.533333-34.133333-22.613334-45.653333l-2.133333-2.133334c-0.853333-0.853333-1.28-1.28-2.56-2.133333-8.96-5.12-18.773333-7.68-29.44-7.68-11.093333 0.853333-20.906667 3.413333-29.866667 8.533333z m172.373334-250.453333h-284.16c-7.68 0-14.08 6.4-14.08 14.08 0 23.893333 19.2 42.24 42.24 42.24h47.786666c11.093333 0 20.48 6.4 25.6 16.213333 12.8 26.453333 17.493333 63.573333 18.773334 100.266667 0 7.68 7.253333 14.08 14.933333 14.08h14.506667c7.68 0.853333 14.933333-5.973333 14.933333-14.08 0.853333-36.693333 5.973333-73.813333 18.773333-100.266667 4.693333-9.813333 14.933333-16.213333 25.6-16.213333h47.786667c23.893333 0 42.24-19.2 42.24-42.24-0.853333-7.253333-7.253333-14.08-14.933333-14.08z m23.04-142.08h-330.666667c-11.093333 0-19.2 8.96-19.2 19.2v17.92c0 11.093333 8.96 19.2 19.2 19.2h330.666667c11.093333 0 19.2-8.96 19.2-19.2v-17.92c0.426667-10.24-8.106667-19.2-19.2-19.2zM426.666667-54.613333c19.626667 0 35.84-16.213333 35.84-36.693334s-15.786667-36.693333-35.84-36.693333H110.08C49.066667-128 0-75.946667 0-12.8V780.8C0 844.373333 49.066667 896 110.08 896h633.173333C804.266667 896 853.333333 844.373333 853.333333 780.8v-208.64c0-20.48-15.786667-36.693333-35.84-36.693333a36.266667 36.266667 0 0 0-35.84 36.693333V780.8c0 23.466667-17.493333 42.24-39.253333 42.24H110.08c-20.906667 0-39.253333-18.346667-39.253333-42.24v-792.746667c0-23.466667 17.493333-42.24 39.253333-42.24H426.666667zM247.04 560.64c-19.626667 0-35.413333 15.786667-35.413333 35.413333s15.786667 35.413333 35.413333 35.413334h353.28c19.626667 0 35.413333-15.786667 35.413333-35.413334s-15.786667-35.413333-35.413333-35.413333H247.04zM247.04 278.186667c-19.626667 0-35.413333 15.786667-35.413333 35.413333s15.786667 35.413333 35.413333 35.413333h198.826667c19.626667 0 35.413333-15.786667 35.413333-35.413333s-15.786667-35.413333-35.413333-35.413333H247.04z"  horiz-adv-x="1024" />
      
      <glyph glyph-name="report" unicode="&#59005;" d="M278.752 196.256h227.552c12.512 0 22.752 11.52 22.752 25.6s-10.24 25.6-22.752 25.6H278.752c-12.512 0-22.752-11.52-22.752-25.6s10.24-25.6 22.752-25.6zM768 699.744H256v-273.056h512V699.744z m-268.32-199.616a12.896 12.896 0 0 0-18.112 0l-60.736 60.736-62.208-62.208c-4.96-4.96-13.12-4.96-18.112 0s-4.96 13.12 0 18.112l68.448 68.448c4.96 4.96 17.248 6.464 22.24 1.472l68.448-68.448a12.832 12.832 0 0 0 0-18.08zM665.6 537.6c0-7.04-5.76-12.8-12.8-12.8s-12.8 5.76-12.8 12.8V596.416l-97.76-97.792c-4.96-4.96-13.12-4.96-18.112 0s-4.96 13.12 0 18.112L621.792 614.4h-67.104c-7.04 0-12.8 5.76-12.8 12.8s5.76 12.8 12.8 12.8h96.8l0.8 0.032 0.992 0.032c6.4 0.16 12.352 0.8 12.352-5.632v-96.8z m-384-238.944h170.656c14.08 0 25.6 11.52 25.6 25.6s-11.52 25.6-25.6 25.6H281.6c-14.08 0-25.6-11.52-25.6-25.6s11.52-25.6 25.6-25.6z m1.12-204.8h356.192c14.688 0 26.72 11.52 26.72 25.6s-12.032 25.6-26.72 25.6H282.72c-14.688 0-26.72-11.52-26.72-25.6s12.032-25.6 26.72-25.6zM819.2 810.656H204.8c-18.848 0-34.144-15.296-34.144-34.144v-785.056c0-18.848 15.296-34.144 34.144-34.144h614.4c18.848 0 34.144 15.296 34.144 34.144V776.512c0 18.848-15.296 34.144-34.144 34.144z m-17.056-802.112H221.888V733.888h580.256v-725.344z"  horiz-adv-x="1024" />
      
      <glyph glyph-name="log" unicode="&#59006;" d="M864 428.8l-165.546667-287.146667 2.133334-113.493333 99.413333 55.04 165.546667 287.146667-101.546667 58.453333z m58.88 101.12l-38.826667-67.413333 101.12-58.453334 38.826667 67.413334-101.12 58.453333z m-373.76-364.373333H219.733333c-20.053333 0-36.693333-16.213333-36.693333-36.693334s16.213333-36.693333 36.693333-36.693333h329.386667a36.693333 36.693333 0 1 1 0 73.386667z m-329.386667 219.733333c-20.053333 0-36.693333-16.213333-36.693333-36.693333s16.213333-36.693333 36.693333-36.693334h439.04c20.053333 0 36.693333 16.213333 36.693334 36.693334s-16.213333 36.693333-36.693334 36.693333H219.733333z m0 219.306667c-20.053333 0-36.693333-16.213333-36.693333-36.693334s16.213333-36.693333 36.693333-36.693333h439.04c20.053333 0 36.693333 16.213333 36.693334 36.693333s-16.213333 36.693333-36.693334 36.693334H219.733333zM256 896h72.96v-183.04H256V896z m109.653333-72.96H512v-72.96H365.653333V823.04zM548.693333 896h72.96v-183.04h-72.96V896z m256-914.346667c0-20.053333-16.213333-36.693333-36.693333-36.693333H109.653333a36.693333 36.693333 0 0 0-36.693333 36.693333V713.386667c0 20.053333 16.213333 36.693333 36.693333 36.693333h109.653334V823.04H109.653333A109.653333 109.653333 0 0 1 0 713.386667v-731.733334A109.653333 109.653333 0 0 1 109.653333-128H768a109.653333 109.653333 0 0 1 109.653333 109.653333v202.666667l-72.96-127.146667v-75.52z m73.386667 731.733334a109.653333 109.653333 0 0 1-109.653333 109.653333h-109.653334v-72.96h109.653334c20.053333 0 36.693333-16.213333 36.693333-36.693333v-355.413334l72.96 127.146667V713.386667z"  horiz-adv-x="1024" />
      
      <glyph glyph-name="result" unicode="&#59007;" d="M715.456 84.928c-170.4-126.592-412.32-112.64-566.912 41.984-169.952 169.92-169.952 445.504 0 615.424 169.984 169.984 445.504 169.984 615.488 0 157.28-157.248 169.024-404.992 35.136-575.808l158.24-158.208a58.464 58.464 0 0 0-82.688-82.688l-159.296 159.296z m-5.76 96.256c139.968 139.968 139.968 366.912 0 506.88s-366.912 139.968-506.88 0c-139.968-139.968-139.968-366.912 0-506.88s366.912-139.968 506.88 0z m-382.72 201.44a30.752 30.752 0 0 0-29.504-22.272H191.648a30.72 30.72 0 0 0 0 61.44h82.624l46.528 162.88c8.064 28.16 47.2 30.144 58.048 2.976l83.328-208.32 100.192 160.288a30.688 30.688 0 0 0 52.288-0.32l0.064-0.128 70.4-117.344h61.984a30.72 30.72 0 0 0 0-61.44h-79.36a30.688 30.688 0 0 0-26.24 14.752l-0.064 0.128-53.568 89.28-105.664-169.088a30.72 30.72 0 0 0-54.496 4.672l-0.064 0.192-72.448 181.088-28.224-98.752z"  horiz-adv-x="1024" />
      
      <glyph glyph-name="http" unicode="&#59008;" d="M37.856-104.384h948.544a31.616 31.616 0 0 1 31.616 31.616V685.984a31.616 31.616 0 0 1-31.616 31.616H37.856a31.616 31.616 0 0 1-31.616-31.616v-758.752c0-17.472 14.144-31.616 31.616-31.616z m31.616 63.264V427.936h885.28v-469.056H69.472zM954.752 654.4v-163.232H69.472V654.4h885.28zM142.72 572.672a28.928 28.928 0 1 0 57.888 0 28.928 28.928 0 0 0-57.888 0z m112.608 0a28.928 28.928 0 1 0 57.888 0 28.928 28.928 0 0 0-57.888 0z m112.576 0a28.928 28.928 0 1 0 57.888 0 28.928 28.928 0 0 0-57.888 0z m-198.656-284.192h36.224v-39.296l-1.632-20.672c8.384 7.776 19.84 15.776 35.616 15.776 25.376 0 36.224-18.208 36.224-47.296v-72.064H239.232v67.552c0 15.968-4.288 20.672-13.504 20.672-8.192 0-13.088-3.68-20.256-10.432v-77.792H169.248v163.552z m144.512-120.352v44.832h-15.776v27.008l17.792 1.44 4.096 30.688h30.304v-30.688h27.424v-28.448h-27.424v-44.416c0-12.896 6.144-18.016 14.752-18.016 3.68 0 7.776 1.216 10.656 2.048l5.728-26.208a85.28 85.28 0 0 0-26.4-4.288c-29.28 0-41.152 18.432-41.152 46.048z m91.488 0v44.832h-15.776v27.008l17.792 1.44 4.096 30.688h30.304v-30.688h27.424v-28.448h-27.424v-44.416c0-12.896 6.144-18.016 14.752-18.016 3.68 0 7.776 1.216 10.656 2.048l5.728-26.208a85.28 85.28 0 0 0-26.4-4.288c-29.28 0-41.152 18.432-41.152 46.048z m91.488 73.28h29.664l2.464-11.264h0.832c9.216 8.192 20.672 14.112 32.736 14.112 27.84 0 45.44-23.328 45.44-59.168 0-40.128-23.936-63.04-48.928-63.04-9.824 0-19.232 4.288-27.008 12.064l1.024-18.208v-33.376h-36.224v158.848z m73.696-56.896c0 20.48-5.952 30.08-18.816 30.08-6.752 0-12.288-3.072-18.624-9.824v-46.048c5.728-5.12 11.872-6.752 17.408-6.752 11.04 0 20.064 9.216 20.064 32.544z m65.696 34.976c0 12.704 8.992 22.528 21.696 22.528 12.48 0 21.696-9.824 21.696-22.528s-9.216-22.528-21.696-22.528c-12.704 0-21.696 9.824-21.696 22.528z m0-74.688c0 12.48 8.992 22.528 21.696 22.528 12.48 0 21.696-10.016 21.696-22.528 0-12.704-9.216-22.72-21.696-22.72-12.704 0-21.696 10.016-21.696 22.72z m110.72 146.336h23.744l-45.024-203.648h-23.744l45.024 203.648z m83.936 0h23.744l-45.024-203.648h-23.744l45.024 203.648z"  horiz-adv-x="1024" />
      
      <glyph glyph-name="sre" unicode="&#59009;" d="M775.68 734.293333c-14.506667-20.906667-22.613333-46.08-22.613333-72.96 0-72.533333 61.013333-131.84 135.68-131.84C962.986667 529.493333 1024 588.8 1024 661.333333s-61.013333 131.84-135.68 131.84c-20.48 0-39.68-4.693333-57.173333-12.373333C743.253333 855.04 631.466667 896 514.133333 896c-72.533333 0-142.506667-15.36-207.786666-45.653333-17.92-8.533333-25.6-29.44-17.066667-46.933334 8.533333-17.493333 30.293333-25.173333 48.213333-16.64 55.466667 25.6 114.773333 38.826667 176.64 38.826667 96-0.426667 188.16-32.426667 261.546667-91.306667zM951.466667 661.333333c0-33.706667-28.16-61.44-63.146667-61.44s-63.146667 27.306667-63.146667 61.44 28.16 61.44 63.146667 61.44 63.146667-27.733333 63.146667-61.44zM306.773333 79.36c-125.866667 71.68-203.946667 204.373333-203.946666 345.6 0 35.84 4.693333 71.253333 14.506666 105.386667 5.973333-0.853333 11.946667-1.28 18.346667-1.28 74.666667 0 135.68 59.306667 135.68 131.84s-61.013333 132.266667-135.68 132.266666S0 733.866667 0 661.333333c0-40.96 19.626667-78.08 49.92-102.4C36.693333 515.84 29.866667 470.613333 29.866667 425.386667c0-166.4 91.733333-322.56 239.786666-406.613334 5.546667-3.413333 11.946667-5.12 18.346667-5.12 12.373333 0 24.746667 6.4 31.573333 17.493334 10.24 16.64 4.266667 38.4-12.8 48.213333zM135.253333 722.346667c34.56 0 63.146667-27.306667 63.146667-61.44s-28.16-61.013333-63.146667-61.013334S72.533333 627.626667 72.533333 661.333333s28.16 61.013333 62.72 61.013334z m826.88-261.973334c-20.053333 0-36.266667-15.786667-36.266666-35.413333 0-174.506667-114.773333-326.826667-282.88-380.16-17.493333 52.48-68.693333 90.88-128.853334 90.88-74.666667 0-135.68-59.306667-135.68-131.84S439.466667-128 514.133333-128c63.573333 0 116.906667 42.666667 131.413334 99.84 208.213333 56.746667 352.426667 241.066667 352.426666 453.12a35.157333 35.157333 0 0 1-35.84 35.413333z m-448-517.546666c-34.56 0-63.146667 27.306667-63.146666 61.44 0 33.706667 28.16 61.44 63.146666 61.44 34.56 0 63.146667-27.306667 63.146667-61.44 0-34.133333-28.16-61.44-63.146667-61.44z"  horiz-adv-x="1024" />
      
      <glyph glyph-name="debug" unicode="&#59010;" d="M1022.08 312.608c0-11.072-4.032-20.608-12.096-28.704s-17.632-12.128-28.704-12.128h-142.816c0-72.704-14.24-134.336-42.72-184.896l132.608-133.248c8.064-8.064 12.128-17.632 12.128-28.704s-4.032-20.608-12.128-28.704c-7.648-8.064-17.216-12.096-28.704-12.096s-21.024 4.032-28.704 12.096l-126.24 125.6c-2.112-2.112-5.312-4.896-9.568-8.288s-13.184-9.472-26.784-18.176c-13.6-8.704-27.424-16.48-41.44-23.264s-31.456-12.96-52.288-18.496a241.376 241.376 0 0 0-61.856-8.288V516.576h-81.6v-571.264c-21.664 0-43.264 2.88-64.704 8.608s-39.968 12.736-55.488 21.024c-15.52 8.288-29.536 16.576-42.08 24.864s-21.792 15.2-27.744 20.704l-9.568 8.928-116.672-132a40.736 40.736 0 0 0-30.592-13.376c-10.208 0-19.328 3.392-27.424 10.208-8.064 7.648-12.448 17.12-13.088 28.384s2.656 21.152 9.888 29.632l128.8 144.736c-24.64 48.48-36.992 106.688-36.992 174.72H42.688c-11.072 0-20.608 4.032-28.704 12.096s-12.128 17.632-12.128 28.704c0 11.04 4.032 20.608 12.128 28.704s17.632 12.096 28.704 12.096h142.816V540.8L75.2 651.104c-8.064 8.064-12.128 17.632-12.128 28.704s4.032 20.608 12.128 28.704c8.064 8.064 17.632 12.128 28.704 12.128s20.608-4.064 28.704-12.128l110.304-110.304h538.144l110.304 110.304c8.064 8.064 17.632 12.128 28.704 12.128s20.608-4.064 28.704-12.128c8.064-8.064 12.128-17.632 12.128-28.704s-4.032-20.608-12.128-28.704L838.464 540.8v-187.456h142.816c11.072 0 20.608-4.032 28.704-12.128s12.128-17.632 12.128-28.672zM716.032 679.84H307.968c0 56.512 19.872 104.672 59.616 144.416S455.456 883.872 512 883.872s104.672-19.872 144.416-59.616 59.616-87.904 59.616-144.416z"  horiz-adv-x="1024" />
      
    </font>
</defs>
</svg>
