<svg width="1840" height="1380" viewBox="0 0 1840 1380" fill="none" xmlns="http://www.w3.org/2000/svg">
<path fill-rule="evenodd" clip-rule="evenodd" d="M1126.55 396.027C1126.92 394.79 1128.05 393.941 1129.35 393.934C1129.35 393.934 1129.36 393.934 1129.37 393.934C1130.54 393.94 1131.49 394.897 1131.48 396.071C1131.48 396.498 1131.48 396.748 1131.48 396.819C1131.48 396.823 1131.48 396.828 1131.48 396.834C1131.48 398.227 1130.36 399.363 1128.97 399.39L1128.6 399.397C1128.48 399.399 1128.37 399.392 1128.25 399.377C1127.02 399.211 1126.16 398.078 1126.32 396.845C1126.33 396.758 1126.41 396.485 1126.55 396.027ZM1136.55 444.027C1136.92 442.79 1138.05 441.941 1139.35 441.934C1139.35 441.934 1139.36 441.934 1139.37 441.934C1140.54 441.94 1141.49 442.897 1141.48 444.071C1141.48 444.498 1141.48 444.748 1141.48 444.819C1141.48 444.823 1141.48 444.828 1141.48 444.834C1141.48 446.227 1140.36 447.363 1138.97 447.39L1138.6 447.397C1138.48 447.399 1138.37 447.392 1138.25 447.377C1137.02 447.211 1136.16 446.078 1136.32 444.845C1136.33 444.758 1136.41 444.485 1136.55 444.027ZM839.628 409.06C839.812 409.48 839.914 409.732 839.936 409.815C840.25 411.03 839.519 412.27 838.304 412.584C838.198 412.611 838.091 412.631 837.982 412.642L837.556 412.689C836.165 412.84 834.911 411.843 834.746 410.453C834.738 410.383 834.708 410.144 834.658 409.736C834.512 408.542 835.361 407.455 836.555 407.308C837.854 407.149 839.103 407.861 839.628 409.06ZM836.444 452.404C836.654 452.883 836.772 453.171 836.796 453.267C837.155 454.656 836.32 456.072 834.931 456.431C834.811 456.462 834.688 456.484 834.563 456.498L834.077 456.551C832.487 456.724 831.054 455.584 830.865 453.995C830.856 453.916 830.822 453.643 830.765 453.176C830.597 451.811 831.568 450.569 832.932 450.402C834.417 450.22 835.845 451.033 836.444 452.404ZM938.637 306.176C939.281 304.018 941.266 302.539 943.518 302.539C945.589 302.539 947.267 304.218 947.267 306.288C947.267 307.001 947.268 307.418 947.268 307.539C947.277 309.952 945.342 311.922 942.929 311.955L942.206 311.965C942.018 311.968 941.83 311.957 941.643 311.932C939.498 311.651 937.987 309.684 938.268 307.539C938.287 307.391 938.411 306.936 938.637 306.176Z" fill="#F6F0FF"/>
<path fill-rule="evenodd" clip-rule="evenodd" d="M889.302 693.935C891.613 711.992 893.447 722.326 894.802 724.935C896.835 728.848 907.302 732.435 909.302 732.435C910.635 732.435 959.968 736.601 1057.3 744.935C1064.64 744.935 1070.97 742.768 1076.3 738.435C1078.45 736.687 1078.24 734.187 1079.3 730.435C1080.35 726.732 1081.35 718.899 1082.3 706.935L1057.3 693.935H889.302Z" fill="white"/>
<path d="M836.854 406.845C835.249 407.042 834.107 408.503 834.304 410.108C834.354 410.515 834.384 410.754 834.392 410.822C834.605 412.621 836.228 413.911 838.028 413.715L838.454 413.669C838.598 413.653 838.741 413.627 838.882 413.591C840.498 413.173 841.47 411.525 841.053 409.909C841.016 409.768 840.911 409.511 840.705 409.04C840.048 407.537 838.482 406.645 836.854 406.845ZM839.331 409.641C839.493 410.01 839.593 410.257 839.6 410.284C839.81 411.098 839.321 411.928 838.507 412.138C838.436 412.157 838.364 412.17 838.291 412.178L837.866 412.224C836.883 412.331 835.998 411.627 835.881 410.645C835.873 410.574 835.843 410.335 835.793 409.925C835.697 409.142 836.254 408.43 837.037 408.334C838.007 408.214 838.94 408.746 839.331 409.641ZM833.232 449.938C831.456 450.156 830.193 451.773 830.411 453.548C830.468 454.014 830.502 454.287 830.511 454.365C830.748 456.362 832.55 457.795 834.549 457.577L835.035 457.525C835.195 457.507 835.354 457.478 835.51 457.438C837.299 456.976 838.375 455.15 837.913 453.361C837.874 453.207 837.754 452.915 837.522 452.384C836.79 450.71 835.045 449.716 833.232 449.938ZM836.148 452.985C836.336 453.414 836.451 453.697 836.461 453.736C836.716 454.723 836.122 455.73 835.134 455.986C835.048 456.008 834.961 456.024 834.873 456.033L834.387 456.086C833.205 456.215 832.14 455.368 832 454.188C831.991 454.107 831.957 453.834 831.9 453.366C831.783 452.412 832.461 451.544 833.414 451.427C834.57 451.285 835.681 451.919 836.148 452.985ZM1129.37 392.816C1127.74 392.824 1126.32 393.89 1125.85 395.443C1125.7 395.954 1125.62 396.231 1125.6 396.377C1125.38 398.02 1126.53 399.531 1128.18 399.752C1128.33 399.772 1128.48 399.781 1128.63 399.778L1129.01 399.771C1130.81 399.737 1132.25 398.267 1132.25 396.466L1132.25 396.451C1132.25 396.382 1132.25 396.132 1132.26 395.707C1132.27 394.118 1130.98 392.824 1129.4 392.816C1129.38 392.816 1129.38 392.816 1129.37 392.816ZM1127.09 396.577C1127.09 396.548 1127.17 396.279 1127.29 395.874C1127.57 394.953 1128.41 394.321 1129.37 394.316C1129.38 394.316 1129.38 394.316 1129.39 394.316C1130.15 394.32 1130.76 394.939 1130.76 395.699C1130.75 396.128 1130.75 396.377 1130.75 396.45L1130.75 396.466C1130.75 397.45 1129.97 398.253 1128.98 398.271L1128.61 398.279C1128.53 398.28 1128.45 398.276 1128.38 398.265C1127.56 398.155 1126.98 397.399 1127.09 396.577ZM1139.37 440.816C1137.74 440.824 1136.32 441.89 1135.85 443.443C1135.7 443.954 1135.62 444.231 1135.6 444.377C1135.38 446.02 1136.53 447.531 1138.18 447.752C1138.33 447.772 1138.48 447.781 1138.63 447.778L1139.01 447.771C1140.81 447.737 1142.25 446.267 1142.25 444.466L1142.25 444.451C1142.25 444.382 1142.25 444.132 1142.26 443.707C1142.27 442.118 1140.98 440.824 1139.4 440.816C1139.38 440.816 1139.38 440.816 1139.37 440.816ZM1137.09 444.577C1137.09 444.548 1137.17 444.279 1137.29 443.874C1137.57 442.953 1138.41 442.321 1139.37 442.316C1139.38 442.316 1139.38 442.316 1139.39 442.316C1140.15 442.32 1140.76 442.939 1140.76 443.699C1140.75 444.128 1140.75 444.377 1140.75 444.45L1140.75 444.466C1140.75 445.45 1139.97 446.253 1138.98 446.271L1138.61 446.279C1138.53 446.28 1138.45 446.276 1138.38 446.265C1137.56 446.155 1136.98 445.399 1137.09 444.577ZM937.488 307.638C937.153 310.194 938.954 312.537 941.51 312.873C941.732 312.902 941.956 312.915 942.181 312.912L942.903 312.902C945.727 312.863 947.993 310.557 947.982 307.733C947.982 307.613 947.981 307.196 947.981 306.484C947.981 304 945.967 301.985 943.482 301.985C940.898 301.985 938.622 303.682 937.883 306.158C937.64 306.972 937.516 307.431 937.488 307.638ZM943.482 303.485C945.138 303.485 946.481 304.828 946.481 306.485C946.481 307.199 946.482 307.616 946.482 307.738C946.49 309.74 944.884 311.374 942.883 311.402L942.16 311.412C942.008 311.414 941.856 311.405 941.705 311.385C939.97 311.158 938.748 309.567 938.976 307.833C938.988 307.743 939.109 307.294 939.32 306.587C939.869 304.747 941.562 303.485 943.482 303.485Z" fill="#67577F"/>
<path d="M893.48 441.173L887.148 454.434L837.002 452.93L836.957 454.43L888.08 455.962L895.161 441.133L924.934 440.426L924.899 438.926L894.292 439.653L889.093 419.217L839.904 410.101L839.631 411.576L887.876 420.517L893.133 441.181L893.48 441.173Z" fill="#67577F"/>
<path fill-rule="evenodd" clip-rule="evenodd" d="M1001.8 505.435L1074.3 491.435L1041.8 578.935H1013.8L1001.8 505.435Z" fill="#67577F"/>
<path fill-rule="evenodd" clip-rule="evenodd" d="M911.302 594.434L795.493 566.919C779.512 563.122 762.669 566.534 749.424 576.25L668.976 635.267C655.849 644.898 647.562 659.765 646.276 675.995L635.302 814.434H661.302L676.613 685.819C678.013 674.062 684.092 663.365 693.477 656.145L766.596 599.9C772.784 595.14 780.677 593.18 788.373 594.492L908.302 614.934L911.302 594.434Z" fill="white"/>
<path d="M912.144 593.863L795.667 566.19C779.471 562.342 762.403 565.799 748.981 575.645L668.533 634.663C655.229 644.422 646.832 659.488 645.528 675.936L634.49 815.184H661.968L677.358 685.908C678.734 674.351 684.71 663.836 693.935 656.74L767.054 600.495C773.075 595.862 780.758 593.954 788.247 595.231L908.933 615.803L912.144 593.863ZM907.671 614.066L788.499 593.752C780.597 592.406 772.492 594.418 766.139 599.306L693.02 655.551C683.475 662.893 677.292 673.773 675.869 685.731L660.636 813.684H636.114L647.024 676.054C648.293 660.041 656.468 645.374 669.42 635.872L749.868 576.855C762.936 567.268 779.553 563.903 795.32 567.649L910.461 595.005L907.671 614.066Z" fill="#67577F"/>
<path fill-rule="evenodd" clip-rule="evenodd" d="M908.859 731.663L901.302 701.435L1043.8 710.935L1045.43 715.159L1057.3 744.164C1065.87 743.799 1071.72 742.34 1074.83 739.849C1077.61 737.63 1079.75 729.299 1081.12 715.042L1059.3 698.631L1070.3 580.935L1093.8 622.935L1083.05 709.883C1083.05 709.918 1083.05 709.955 1083.05 709.991C1081.7 727.904 1079.34 738.162 1075.77 741.02C1072.33 743.774 1066.15 745.304 1057.2 745.67L1057.3 745.935L909.302 733.435L909.239 733.183C900.23 732.864 892.759 726.099 891.554 717.161L888.514 694.616L890 694.415L893.04 716.961C894.128 725.03 900.775 731.173 908.859 731.663Z" fill="#67577F"/>
<path d="M883.302 456.312L888.491 482.258C893.36 506.6 917.02 522.402 941.37 517.573L1073.8 491.312L1059.09 429.079C1048.75 385.33 1006.83 356.628 962.302 362.812C956.397 363.632 950.069 364.725 943.316 366.09C901.856 374.471 875.006 414.835 883.302 456.312Z" fill="white"/>
<mask id="mask0" mask-type="alpha" maskUnits="userSpaceOnUse" x="881" y="361" width="193" height="158">
<path d="M883.302 456.312L888.491 482.258C893.36 506.6 917.02 522.402 941.37 517.573L1073.8 491.312L1059.09 429.079C1048.75 385.33 1006.83 356.628 962.302 362.812C956.397 363.632 950.069 364.725 943.316 366.09C901.856 374.471 875.006 414.835 883.302 456.312Z" fill="white"/>
</mask>
<g mask="url(#mask0)">
<path fill-rule="evenodd" clip-rule="evenodd" d="M882.302 502.935L987.184 485.454C997.43 483.747 1004.66 474.48 1003.83 464.126L1001.78 438.564C1000.81 426.452 990.2 417.423 978.089 418.395C977.242 418.463 976.4 418.58 975.566 418.745L866.302 440.435L882.302 502.935Z" fill="#F6F0FF"/>
<path d="M881.746 503.288L987.307 485.694C997.937 483.922 1005.44 474.308 1004.58 463.566L1002.53 438.004C1001.52 425.479 990.553 416.142 978.029 417.147C977.153 417.218 976.282 417.339 975.421 417.51L865.379 439.353L881.746 503.288ZM867.225 440.516L975.713 418.981C976.518 418.821 977.331 418.708 978.149 418.643C989.848 417.703 1000.09 426.425 1001.03 438.124L1003.08 463.686C1003.88 473.651 996.922 482.571 987.061 484.215L882.858 501.582L867.225 440.516Z" fill="#67577F"/>
</g>
<path d="M944.518 340.29L944.302 311.935C944.302 311.52 943.966 311.185 943.552 311.185C943.138 311.185 942.802 311.52 942.802 311.935L943.018 341.04C943.018 341.454 943.354 341.79 943.768 341.79H964.031L952.603 363.693C952.412 364.06 952.554 364.513 952.921 364.704C953.288 364.896 953.741 364.754 953.933 364.386L965.933 341.386C966.194 340.887 965.831 340.29 965.268 340.29H944.518Z" fill="#67577F"/>
<path d="M882.567 456.459L887.756 482.405C892.705 507.153 916.761 523.218 941.516 518.309L1073.95 492.048C1074.36 491.965 1074.63 491.553 1074.53 491.14L1059.82 428.906C1049.39 384.781 1007.11 355.832 962.199 362.069C956.278 362.892 949.935 363.987 943.168 365.355C901.302 373.817 874.19 414.576 882.567 456.459ZM941.225 516.838C917.281 521.586 894.014 506.047 889.227 482.111L884.038 456.165C875.823 415.093 902.41 375.124 943.465 366.825C950.203 365.463 956.516 364.373 962.405 363.555C1006.55 357.424 1048.11 385.879 1058.36 429.251L1072.89 490.728L941.225 516.838Z" fill="#67577F"/>
<path fill-rule="evenodd" clip-rule="evenodd" d="M904.024 578.739L887.623 685.19C886.445 692.832 891.686 699.982 899.328 701.159C899.719 701.219 900.113 701.263 900.508 701.29L1043.98 711.066C1051.19 711.558 1057.59 706.478 1058.75 699.343L1075.86 594.016C1077.1 586.384 1071.91 579.192 1064.28 577.953C1063.89 577.889 1063.49 577.842 1063.09 577.812L918.916 566.91C911.625 566.359 905.137 571.512 904.024 578.739Z" fill="white"/>
<path d="M903.283 578.625L886.882 685.076C885.641 693.127 891.162 700.66 899.214 701.9C899.626 701.964 900.041 702.01 900.457 702.038L1043.93 711.815C1051.53 712.333 1058.27 706.981 1059.49 699.463L1076.6 594.136C1077.9 586.095 1072.44 578.518 1064.4 577.212C1063.99 577.145 1063.57 577.095 1063.15 577.064L918.973 566.163C911.291 565.582 904.456 571.011 903.283 578.625ZM904.765 578.853C905.819 572.013 911.959 567.137 918.86 567.658L1063.04 578.559C1063.41 578.588 1063.79 578.632 1064.16 578.693C1071.39 579.866 1076.29 586.673 1075.12 593.896L1058.01 699.223C1056.92 705.976 1050.86 710.783 1044.03 710.318L900.559 700.542C900.185 700.516 899.812 700.475 899.442 700.418C892.21 699.303 887.25 692.537 888.364 685.305L904.765 578.853Z" fill="#67577F"/>
<path fill-rule="evenodd" clip-rule="evenodd" d="M629.172 813.167C628.721 821.864 635.405 829.28 644.103 829.731C644.359 829.745 644.616 829.752 644.872 829.752L653.44 829.778C662.251 829.805 669.415 822.684 669.442 813.873C669.442 813.849 669.442 813.825 669.442 813.801C669.428 804.872 662.324 797.569 653.399 797.31L646.581 797.112C637.379 796.844 629.649 803.974 629.172 813.167Z" fill="white"/>
<path fill-rule="evenodd" clip-rule="evenodd" d="M818.938 1001.72L892.302 966.224L799.527 900.934L727.302 930.188" fill="white"/>
<path d="M628.673 813.642C628.201 822.752 635.203 830.521 644.314 830.994C644.583 831.008 644.852 831.015 645.12 831.016L653.689 831.042C662.914 831.07 670.414 823.614 670.442 814.389L670.442 814.314C670.428 804.98 663.001 797.345 653.671 797.074L646.853 796.876C637.244 796.597 629.171 804.042 628.673 813.642ZM630.171 813.719C630.627 804.933 638.015 798.12 646.809 798.375L653.628 798.573C662.147 798.821 668.929 805.792 668.942 814.316L668.942 814.384C668.917 822.781 662.09 829.567 653.693 829.542L645.125 829.516C644.88 829.515 644.636 829.509 644.392 829.496C636.108 829.066 629.742 822.003 630.171 813.719Z" fill="#67577F"/>
<path fill-rule="evenodd" clip-rule="evenodd" d="M624.304 1001.72L545.804 1035.93C499.979 986.609 477.145 961.275 477.304 959.934C477.462 958.592 504.462 948.592 558.304 929.934L624.304 1001.72Z" fill="white"/>
<path fill-rule="evenodd" clip-rule="evenodd" d="M632.3 1100.14L809.302 1098.93L819.302 1001.93H624.302L583.802 1019.43L588.802 1059.93L632.3 1100.14Z" fill="white"/>
<path fill-rule="evenodd" clip-rule="evenodd" d="M696.302 1001.93V1059.93L727.302 1040.93L756.302 1059.93V1001.93H696.302Z" fill="#F6F0FF"/>
<path d="M631.56 1100.06L588.096 1060.3L582.651 1020.49L545.608 1036.63L476 959.399L558.514 929.56L624.825 1000.97H818.768L890.83 966.105L799.432 901.783L727.802 931.435L727.239 930.044L799.626 900.086L893.777 966.345L820.026 1002.03L809.981 1099.47L631.611 1100.69L631.56 1100.06ZM631.381 1097.86L623.625 1002.63L584.079 1019.86L589.508 1059.56L631.381 1097.86ZM625.117 1002.47L632.993 1099.18L808.626 1097.98L818.472 1002.47H625.117ZM558.09 931.309L478.607 960.051L545.999 1034.82L623.034 1001.25L558.09 931.309Z" fill="#67577F"/>
<path d="M755.891 1060.56C756.39 1060.89 757.052 1060.53 757.052 1059.93V1001.93C757.052 1001.52 756.716 1001.18 756.302 1001.18H696.302C695.888 1001.18 695.552 1001.52 695.552 1001.93V1059.93C695.552 1060.52 696.194 1060.88 696.694 1060.57L727.288 1041.82L755.891 1060.56ZM755.552 1002.68V1058.55L727.713 1040.31C727.47 1040.15 727.157 1040.14 726.91 1040.29L697.052 1058.59V1002.68H755.552Z" fill="#67577F"/>
<path d="M898.049 457.422C897.575 454.982 899.168 452.62 901.608 452.146C904.047 451.672 906.409 453.265 906.884 455.704L909.555 469.447C910.029 471.887 908.436 474.249 905.996 474.723C903.557 475.197 901.194 473.604 900.72 471.164L898.049 457.422Z" fill="white"/>
<path d="M968.486 448.595C968.15 445.855 970.099 443.36 972.84 443.023C975.58 442.687 978.075 444.636 978.412 447.377L980.118 461.272C980.454 464.013 978.505 466.508 975.764 466.845C973.024 467.181 970.529 465.232 970.192 462.491L968.486 448.595Z" fill="white"/>
<path d="M973.336 442.963L972.344 443.085C969.877 443.388 968.123 445.633 968.425 448.1L970.254 462.988C970.556 465.455 972.802 467.209 975.268 466.906L976.261 466.784C978.728 466.481 980.482 464.236 980.179 461.769L978.351 446.881C978.048 444.414 975.803 442.66 973.336 442.963ZM973.519 444.452C975.163 444.25 976.66 445.419 976.862 447.064L978.69 461.952C978.892 463.597 977.723 465.093 976.078 465.295L975.086 465.417C973.441 465.619 971.944 464.45 971.742 462.805L969.914 447.917C969.712 446.272 970.882 444.776 972.526 444.574L973.519 444.452ZM973.084 445.009C971.439 445.211 970.27 446.708 970.472 448.352L972.178 462.248C972.38 463.892 973.876 465.062 975.521 464.86C977.165 464.658 978.335 463.161 978.133 461.517L976.427 447.621C976.225 445.977 974.728 444.807 973.084 445.009ZM979.914 443.141C980.326 443.185 980.695 442.886 980.739 442.474C980.783 442.062 980.484 441.693 980.072 441.649L966.221 440.185C965.809 440.141 965.44 440.44 965.396 440.851C965.353 441.263 965.651 441.633 966.063 441.676L979.914 443.141ZM895.571 453.634L908.571 448.634C908.958 448.486 909.151 448.052 909.002 447.665C908.854 447.279 908.42 447.086 908.033 447.234L895.033 452.234C894.646 452.383 894.454 452.817 894.602 453.204C894.751 453.59 895.185 453.783 895.571 453.634ZM935.12 473.39C937.071 470.98 939.585 469.622 942.703 469.294C947.882 468.75 949.038 468.892 953.03 470.625C953.41 470.79 953.851 470.616 954.017 470.236C954.182 469.856 954.007 469.414 953.627 469.249C949.383 467.406 947.969 467.233 942.546 467.803C939.034 468.172 936.157 469.726 933.954 472.446C933.694 472.768 933.743 473.24 934.065 473.501C934.387 473.761 934.859 473.712 935.12 473.39ZM902.206 451.562L901.218 451.718C898.763 452.107 897.089 454.412 897.478 456.867L899.824 471.682C900.213 474.137 902.518 475.811 904.973 475.423L905.96 475.266C908.415 474.877 910.09 472.572 909.701 470.118L907.354 455.302C906.966 452.848 904.661 451.173 902.206 451.562ZM902.441 453.043C904.077 452.784 905.614 453.9 905.873 455.537L908.219 470.352C908.479 471.989 907.362 473.525 905.726 473.785L904.738 473.941C903.101 474.2 901.565 473.084 901.306 471.447L898.959 456.632C898.7 454.995 899.816 453.459 901.453 453.2L902.441 453.043ZM902.025 453.615C900.388 453.874 899.272 455.411 899.531 457.048L901.721 470.875C901.98 472.512 903.517 473.628 905.154 473.369C906.79 473.11 907.907 471.573 907.647 469.937L905.457 456.109C905.198 454.472 903.661 453.356 902.025 453.615Z" fill="#67577F"/>
<path fill-rule="evenodd" clip-rule="evenodd" d="M818.304 1001.72H624.304L558.304 930.225H727.304L818.304 1001.72ZM609.385 1047.43C605.935 1048.42 601.533 1043.63 599.554 1036.73C597.575 1029.82 598.768 1023.43 602.219 1022.44C605.67 1021.45 610.071 1026.24 612.05 1033.14C614.029 1040.04 612.836 1046.44 609.385 1047.43Z" fill="#67577F"/>
<path fill-rule="evenodd" clip-rule="evenodd" d="M1002.84 735.388L1030.04 891.935L1020.8 1067.43L993.036 1092.46C991.395 1093.94 991.264 1096.47 992.743 1098.11C993.501 1098.95 994.581 1099.43 995.714 1099.43H1083.3C1070.84 1005.35 1060.75 935.187 1053.04 888.935C1045.59 844.246 1035.38 792.014 1022.41 732.238C1021.61 728.559 1018.36 725.935 1014.59 725.935C1013.71 725.935 1012.86 725.935 1012.04 725.935C1011.36 725.935 1010.63 725.979 1009.83 726.067C1005.44 726.556 1002.28 730.512 1002.77 734.903C1002.78 735.065 1002.81 735.227 1002.84 735.388Z" fill="white"/>
<path d="M1019.83 1067.09L992.295 1091.91C990.347 1093.66 990.191 1096.67 991.947 1098.61C992.848 1099.61 994.13 1100.18 995.476 1100.18H1083.06C1083.52 1100.18 1083.87 1099.79 1083.81 1099.34C1071.34 1005.25 1061.25 935.073 1053.54 888.811C1046.09 844.11 1035.88 791.866 1022.91 732.079C1022.03 728.055 1018.47 725.185 1014.36 725.185H1011.8C1011.09 725.185 1010.33 725.23 1009.51 725.322C1004.71 725.856 1001.25 730.183 1001.78 734.986C1001.8 735.163 1001.83 735.34 1001.86 735.516L1029.05 891.98L1019.83 1067.09ZM1019.81 1067.4L1020.06 1066.88L1019.83 1067.09L1019.81 1067.4ZM1082.21 1098.68H995.476C994.555 1098.68 993.678 1098.29 993.062 1097.61C991.86 1096.28 991.966 1094.22 993.3 1093.02L1021.07 1067.99C1021.21 1067.86 1021.3 1067.67 1021.31 1067.47L1030.55 891.974L1030.54 891.806L1003.34 735.259C1003.31 735.113 1003.29 734.967 1003.27 734.82C1002.83 730.84 1005.7 727.255 1009.68 726.812C1010.44 726.727 1011.15 726.685 1011.8 726.685H1014.36C1017.77 726.685 1020.72 729.063 1021.44 732.397C1034.41 792.162 1044.61 844.383 1052.06 889.058C1059.75 935.161 1069.8 1005.04 1082.21 1098.68Z" fill="#67577F"/>
<path fill-rule="evenodd" clip-rule="evenodd" d="M1023.4 890.327C1022.48 882.604 1027.99 875.595 1035.71 874.659L1040.82 874.039C1048.56 873.101 1055.64 878.508 1056.77 886.225C1056.79 886.323 1056.8 886.421 1056.81 886.519C1057.75 894.039 1052.41 900.894 1044.89 901.831L1039.03 902.562C1039.01 902.565 1038.98 902.568 1038.95 902.571C1031.28 903.485 1024.32 898.003 1023.4 890.327ZM1032.4 888.967C1032.81 892.344 1035.88 894.748 1039.26 894.34L1042 894.01C1045.26 893.616 1047.59 890.649 1047.19 887.384C1047.19 887.325 1047.18 887.267 1047.17 887.209C1046.66 883.827 1043.56 881.459 1040.16 881.857L1037.76 882.139C1034.4 882.533 1032 885.575 1032.39 888.934C1032.39 888.945 1032.4 888.956 1032.4 888.967Z" fill="#F6F0FF"/>
<path d="M1022.29 890.771C1021.32 882.638 1027.12 875.255 1035.25 874.27L1040.36 873.65C1048.51 872.663 1055.96 878.352 1057.15 886.472C1057.16 886.575 1057.18 886.679 1057.19 886.782C1058.18 894.713 1052.55 901.943 1044.62 902.931L1038.76 903.662L1038.68 903.672C1030.59 904.634 1023.25 898.858 1022.29 890.771ZM1023.78 890.594C1024.65 897.859 1031.24 903.047 1038.5 902.182L1038.57 902.173L1044.44 901.443C1051.54 900.557 1056.59 894.076 1055.7 886.968C1055.69 886.875 1055.68 886.782 1055.67 886.689C1054.59 879.375 1047.88 874.25 1040.54 875.139L1035.43 875.759C1028.12 876.645 1022.91 883.282 1023.78 890.594ZM1031.28 889.377C1030.84 885.607 1033.54 882.192 1037.31 881.75L1039.71 881.468C1043.51 881.022 1046.98 883.67 1047.55 887.452C1047.56 887.518 1047.56 887.584 1047.57 887.65C1048.02 891.326 1045.4 894.667 1041.72 895.11L1038.98 895.441C1035.2 895.898 1031.75 893.202 1031.29 889.414L1031.28 889.377ZM1038.8 893.951L1041.54 893.621C1044.39 893.277 1046.43 890.684 1046.08 887.829C1046.08 887.778 1046.07 887.727 1046.06 887.676C1045.61 884.694 1042.88 882.606 1039.88 882.958L1037.48 883.24C1034.53 883.585 1032.43 886.255 1032.77 889.202L1032.77 889.231C1033.14 892.198 1035.84 894.309 1038.8 893.951Z" fill="#67577F"/>
<path fill-rule="evenodd" clip-rule="evenodd" d="M962.653 732.065L913.302 890.258L986.214 1024.43L981.674 1071.07C981.46 1073.27 983.069 1075.23 985.268 1075.44C986.348 1075.55 987.426 1075.21 988.252 1074.5L1055.71 1016.93L1039.71 1000.93L936.863 891.198L981.685 735.543C982.835 731.549 980.529 727.378 976.535 726.228C975.857 726.033 975.156 725.934 974.452 725.934C973.746 725.934 973.021 725.891 972.276 725.805C967.981 725.309 963.941 727.938 962.653 732.065Z" fill="white"/>
<path d="M985.905 1024.79L985.817 1024.36L985.795 1024.59L985.905 1024.79ZM981.278 1071C981.023 1073.61 982.934 1075.93 985.545 1076.19C986.828 1076.31 988.108 1075.91 989.089 1075.07L1056.55 1017.5C1056.88 1017.22 1056.9 1016.71 1056.59 1016.4L1040.59 1000.4L938.052 890.996L982.756 735.751C984.02 731.358 981.485 726.772 977.092 725.507C976.348 725.293 975.577 725.184 974.802 725.184C974.126 725.184 973.429 725.143 972.712 725.06C968.059 724.523 963.682 727.371 962.287 731.842L912.936 890.035C912.876 890.228 912.896 890.438 912.993 890.616L985.795 1024.59L981.278 1071ZM988.115 1073.93C987.444 1074.5 986.568 1074.78 985.69 1074.69C983.904 1074.52 982.597 1072.93 982.77 1071.14L987.31 1024.51C987.325 1024.36 987.294 1024.21 987.223 1024.08L914.462 890.179L963.719 732.289C964.899 728.505 968.603 726.096 972.54 726.55C973.313 726.639 974.067 726.684 974.802 726.684C975.436 726.684 976.067 726.773 976.677 726.948C980.274 727.984 982.35 731.739 981.314 735.336L936.493 890.991C936.42 891.245 936.486 891.518 936.666 891.711L1039.52 1001.45L1054.96 1016.89L988.115 1073.93Z" fill="#67577F"/>
<path fill-rule="evenodd" clip-rule="evenodd" d="M909.559 894.944C908.112 887.414 912.918 880.1 920.404 878.441L925.732 877.26C932.968 875.656 940.162 880.116 941.944 887.309C943.714 894.455 939.363 901.684 932.22 903.465L925.519 905.136C925.289 905.193 925.058 905.244 924.825 905.289C917.753 906.648 910.918 902.016 909.559 894.944ZM918.539 893.418C919.179 896.528 922.217 898.531 925.327 897.891C925.379 897.881 925.43 897.87 925.481 897.857L928.809 897.078C931.805 896.375 933.664 893.378 932.962 890.382C932.951 890.332 932.938 890.284 932.926 890.235C932.109 887.131 929.005 885.21 925.863 885.863L923.135 886.429C919.938 887.093 917.882 890.22 918.539 893.418Z" fill="#F6F0FF"/>
<path d="M908.925 895.396C907.401 887.468 912.462 879.767 920.344 878.019L925.673 876.838C933.305 875.147 940.895 879.851 942.774 887.439C944.644 894.987 940.048 902.622 932.504 904.503L925.803 906.174C925.56 906.235 925.315 906.289 925.069 906.336C917.59 907.773 910.362 902.875 908.925 895.396ZM910.398 895.113C911.679 901.779 918.121 906.144 924.786 904.863C925.005 904.821 925.223 904.773 925.44 904.718L932.141 903.048C938.882 901.367 942.989 894.544 941.318 887.8C939.634 881.002 932.835 876.787 925.997 878.303L920.669 879.484C913.58 881.055 909.028 887.982 910.398 895.113ZM917.907 893.88C917.167 890.276 919.483 886.754 923.085 886.006L925.813 885.439C929.346 884.705 932.835 886.865 933.754 890.355C933.768 890.41 933.782 890.465 933.795 890.521C934.592 893.92 932.482 897.322 929.083 898.119L925.755 898.898C925.697 898.912 925.639 898.925 925.581 898.937C922.065 899.659 918.63 897.395 917.907 893.88ZM919.377 893.578C919.932 896.282 922.575 898.023 925.279 897.467C925.324 897.458 925.368 897.448 925.413 897.438L928.74 896.658C931.333 896.05 932.942 893.456 932.335 890.863C932.325 890.821 932.314 890.778 932.303 890.736C931.588 888.018 928.87 886.336 926.118 886.908L923.39 887.474C920.598 888.054 918.803 890.785 919.377 893.578Z" fill="#67577F"/>
<path fill-rule="evenodd" clip-rule="evenodd" d="M812.278 797.153C813.674 792.435 818.021 789.207 822.941 789.236C827.485 789.262 831.162 792.938 831.188 797.481C831.197 798.963 831.203 799.831 831.205 800.087C831.205 800.093 831.205 800.099 831.206 800.106C831.246 805.294 827.072 809.533 821.884 809.573L820.061 809.587C819.68 809.59 819.298 809.568 818.92 809.52C814.241 808.926 810.93 804.652 811.523 799.973C811.563 799.66 811.815 798.72 812.278 797.153ZM767.278 688.153C768.674 683.435 773.021 680.207 777.941 680.236C782.485 680.262 786.162 683.938 786.188 688.481C786.197 689.963 786.203 690.831 786.205 691.087C786.205 691.093 786.206 691.099 786.206 691.106C786.246 696.294 782.072 700.533 776.884 700.573L775.061 700.587C774.68 700.59 774.298 700.568 773.92 700.52C769.241 699.926 765.93 695.652 766.523 690.973C766.563 690.66 766.815 689.72 767.278 688.153ZM1231.28 666.153C1232.67 661.435 1237.02 658.207 1241.94 658.236C1246.48 658.262 1250.16 661.938 1250.19 666.481C1250.2 667.963 1250.2 668.831 1250.21 669.087C1250.21 669.093 1250.21 669.099 1250.21 669.106C1250.25 674.294 1246.07 678.533 1240.88 678.573L1239.06 678.587C1238.68 678.59 1238.3 678.568 1237.92 678.52C1233.24 677.926 1229.93 673.652 1230.52 668.973C1230.56 668.66 1230.81 667.72 1231.28 666.153ZM1133.28 831.153C1134.67 826.435 1139.02 823.207 1143.94 823.236C1148.48 823.262 1152.16 826.938 1152.19 831.481C1152.2 832.963 1152.2 833.831 1152.21 834.087C1152.21 834.093 1152.21 834.099 1152.21 834.106C1152.25 839.294 1148.07 843.533 1142.88 843.573L1141.06 843.587C1140.68 843.59 1140.3 843.568 1139.92 843.52C1135.24 842.926 1131.93 838.652 1132.52 833.973C1132.56 833.66 1132.81 832.72 1133.28 831.153ZM1262.28 891.153C1263.67 886.435 1268.02 883.207 1272.94 883.236C1277.48 883.262 1281.16 886.938 1281.19 891.481C1281.2 892.963 1281.2 893.831 1281.21 894.087C1281.21 894.093 1281.21 894.099 1281.21 894.106C1281.25 899.294 1277.07 903.533 1271.88 903.573L1270.06 903.587C1269.68 903.59 1269.3 903.568 1268.92 903.52C1264.24 902.926 1260.93 898.652 1261.52 893.973C1261.56 893.66 1261.81 892.72 1262.28 891.153ZM1154.28 503.153C1155.67 498.435 1160.02 495.207 1164.94 495.236C1169.48 495.262 1173.16 498.938 1173.19 503.481C1173.2 504.963 1173.2 505.831 1173.21 506.087C1173.21 506.093 1173.21 506.099 1173.21 506.106C1173.25 511.294 1169.07 515.533 1163.88 515.573L1162.06 515.587C1161.68 515.59 1161.3 515.568 1160.92 515.52C1156.24 514.926 1152.93 510.652 1153.52 505.973C1153.56 505.66 1153.81 504.72 1154.28 503.153ZM563.278 759.153C564.674 754.435 569.021 751.207 573.941 751.236C578.485 751.262 582.162 754.938 582.188 759.481C582.197 760.963 582.203 761.831 582.205 762.087C582.205 762.093 582.206 762.099 582.206 762.106C582.246 767.294 578.072 771.533 572.884 771.573L571.061 771.587C570.68 771.59 570.298 771.568 569.92 771.52C565.241 770.926 561.93 766.652 562.523 761.973C562.563 761.66 562.815 760.72 563.278 759.153ZM683.278 541.153C684.674 536.435 689.021 533.207 693.941 533.236C698.485 533.262 702.162 536.938 702.188 541.481C702.197 542.963 702.203 543.831 702.205 544.087C702.205 544.093 702.206 544.099 702.206 544.106C702.246 549.294 698.072 553.533 692.884 553.573L691.061 553.587C690.68 553.59 690.298 553.568 689.92 553.52C685.241 552.926 681.93 548.652 682.523 543.973C682.563 543.66 682.815 542.72 683.278 541.153Z" fill="#F6F0FF"/>
<path fill-rule="evenodd" clip-rule="evenodd" d="M629.996 886.286C621.457 880.725 615.603 871.298 615.029 860.343C614.075 842.143 628.056 826.615 646.257 825.662C664.457 824.708 679.985 838.689 680.938 856.889C681.523 868.048 676.494 878.201 668.321 884.608L655.995 868.855C659.215 866.332 661.196 862.332 660.966 857.936C660.59 850.766 654.473 845.258 647.303 845.634C640.133 846.01 634.626 852.127 635.001 859.297C635.228 863.612 637.534 867.326 640.898 869.516L629.996 886.286Z" fill="#F6F0FF"/>
<path d="M630.683 887.638L630.054 887.229C621.069 881.377 615.319 871.61 614.747 860.697C613.771 842.083 628.07 826.202 646.684 825.227C665.298 824.251 681.179 838.55 682.154 857.164C682.737 868.282 677.849 878.773 669.251 885.513L668.66 885.976L655.41 869.042L656 868.579C659.122 866.132 660.895 862.325 660.684 858.289C660.33 851.533 654.566 846.343 647.809 846.697C641.053 847.051 635.863 852.815 636.217 859.572C636.425 863.533 638.511 867.078 641.774 869.202L642.402 869.611L630.683 887.638ZM630.248 885.555L640.338 870.033C637.033 867.617 634.939 863.841 634.719 859.65C634.322 852.067 640.147 845.597 647.731 845.199C655.314 844.802 661.784 850.627 662.182 858.211C662.406 862.485 660.645 866.532 657.502 869.282L668.911 883.862C676.764 877.409 681.2 867.612 680.656 857.243C679.724 839.456 664.549 825.793 646.763 826.725C628.976 827.657 615.313 842.832 616.245 860.618C616.778 870.792 622.019 879.922 630.248 885.555Z" fill="#67577F"/>
<path fill-rule="evenodd" clip-rule="evenodd" d="M1096.77 635.297L1285.9 561.009C1290.02 559.394 1294.66 561.418 1296.27 565.531C1296.47 566.026 1296.61 566.539 1296.71 567.063L1334.42 780.447C1334.9 783.167 1333.08 785.761 1330.36 786.241C1329.42 786.407 1328.46 786.301 1327.57 785.935L1091.5 687.935V711.935L1329.86 815.923C1342.01 821.223 1356.16 815.671 1361.46 803.522C1363.29 799.328 1363.88 794.698 1363.17 790.178L1325.3 550.635C1322.8 534.815 1307.95 524.018 1292.13 526.518C1289.79 526.889 1287.5 527.546 1285.31 528.475L1088.04 612.366C1083.71 614.21 1081.03 618.61 1081.38 623.309C1081.48 624.693 1081.69 626.069 1082 627.435C1082.01 627.479 1082.02 627.523 1082.03 627.567C1083.42 633.482 1089.34 637.154 1095.25 635.768C1095.77 635.648 1096.27 635.49 1096.77 635.297Z" fill="white"/>
<path d="M1097.34 635.994L1286.48 561.706C1290.2 560.243 1294.41 562.077 1295.87 565.804C1296.05 566.253 1296.18 566.718 1296.27 567.193L1333.98 780.577C1334.38 782.888 1332.84 785.093 1330.53 785.502C1329.73 785.643 1328.91 785.553 1328.16 785.242L1091.05 686.81V712.425L1329.86 816.61C1342.39 822.075 1356.98 816.35 1362.44 803.821C1364.33 799.496 1364.94 794.721 1364.21 790.06L1326.34 550.517C1323.78 534.288 1308.54 523.211 1292.31 525.776C1289.91 526.157 1287.56 526.831 1285.32 527.784L1088.05 611.675C1083.42 613.644 1080.55 618.345 1080.93 623.364C1081.04 624.786 1081.25 626.199 1081.57 627.601C1081.59 627.669 1081.59 627.669 1081.6 627.737C1083.08 634.055 1089.4 637.977 1095.72 636.498C1096.27 636.369 1096.81 636.2 1097.34 635.994ZM1092.55 689.057L1327.59 786.627C1328.6 787.048 1329.71 787.17 1330.79 786.979C1333.92 786.426 1336 783.443 1335.45 780.316L1297.74 566.932C1297.64 566.359 1297.48 565.797 1297.27 565.256C1295.5 560.758 1290.42 558.543 1285.93 560.31L1096.79 634.598C1096.33 634.778 1095.86 634.925 1095.38 635.037C1089.87 636.328 1084.35 632.906 1083.06 627.395C1083.05 627.33 1083.05 627.33 1083.03 627.266C1082.73 625.937 1082.53 624.599 1082.43 623.252C1082.1 618.874 1084.6 614.773 1088.64 613.055L1285.9 529.165C1288.03 528.259 1290.26 527.619 1292.55 527.258C1307.96 524.822 1322.43 535.34 1324.86 550.751L1362.72 790.295C1363.42 794.673 1362.84 799.158 1361.07 803.221C1355.94 814.991 1342.23 820.369 1330.46 815.235L1092.55 711.443V689.057Z" fill="#67577F"/>
<path fill-rule="evenodd" clip-rule="evenodd" d="M1098.82 779.758C1089.25 776.261 1081.42 768.393 1078.4 757.848C1073.37 740.328 1083.5 722.054 1101.02 717.03C1118.54 712.006 1136.82 722.136 1141.84 739.656C1144.92 750.396 1142.31 761.421 1135.78 769.502L1120.23 756.926C1122.8 753.743 1123.83 749.4 1122.62 745.168C1120.64 738.267 1113.44 734.276 1106.54 736.255C1099.63 738.234 1095.64 745.433 1097.62 752.335C1098.81 756.489 1101.9 759.588 1105.67 760.966L1098.82 779.758Z" fill="#F6F0FF"/>
<path d="M1099.23 780.793L1098.53 780.535C1088.45 776.855 1080.65 768.632 1077.64 758.127C1072.5 740.21 1082.86 721.52 1100.78 716.382C1118.7 711.244 1137.39 721.604 1142.53 739.522C1145.6 750.223 1143.19 761.545 1136.33 770.046L1135.86 770.63L1119.14 757.111L1119.61 756.528C1122.1 753.441 1122.97 749.333 1121.86 745.448C1120 738.944 1113.21 735.184 1106.71 737.049C1100.21 738.914 1096.44 745.698 1098.31 752.201C1099.4 756.014 1102.23 758.998 1105.89 760.335L1106.59 760.592L1099.23 780.793ZM1104.68 761.467C1100.91 759.857 1098.02 756.648 1096.87 752.614C1094.77 745.315 1099 737.7 1106.3 735.607C1113.59 733.514 1121.21 737.735 1123.3 745.034C1124.48 749.148 1123.68 753.488 1121.23 756.874L1135.63 768.514C1141.83 760.46 1143.95 749.917 1141.09 739.935C1136.18 722.814 1118.32 712.914 1101.2 717.824C1084.07 722.733 1074.18 740.592 1079.08 757.714C1081.89 767.507 1089.05 775.224 1098.34 778.861L1104.68 761.467Z" fill="#67577F"/>
<path fill-rule="evenodd" clip-rule="evenodd" d="M1104.14 722.333C1112.76 721.116 1118.77 713.139 1117.55 704.516C1117.52 704.262 1117.47 704.008 1117.43 703.756L1115.82 695.341C1114.16 686.687 1105.8 681.013 1097.15 682.668C1097.13 682.673 1097.1 682.677 1097.08 682.682C1088.32 684.399 1082.5 692.766 1083.95 701.577L1085.06 708.307C1086.55 717.391 1095.03 723.619 1104.14 722.333Z" fill="white"/>
<path d="M1104.07 722.849C1113.1 721.574 1119.39 713.218 1118.12 704.184C1118.08 703.918 1118.04 703.652 1117.98 703.388L1116.38 694.973C1114.64 685.912 1105.89 679.972 1096.83 681.705L1096.76 681.719C1087.6 683.514 1081.52 692.261 1083.03 701.471L1084.14 708.202C1085.7 717.687 1094.55 724.192 1104.07 722.849ZM1103.86 721.363C1095.15 722.592 1087.05 716.64 1085.62 707.959L1084.51 701.228C1083.13 692.817 1088.68 684.83 1097.05 683.191L1097.11 683.178C1105.36 681.601 1113.32 687.007 1114.9 695.254L1116.51 703.67C1116.56 703.91 1116.6 704.151 1116.63 704.393C1117.79 712.607 1112.07 720.204 1103.86 721.363Z" fill="#67577F"/>
<path d="M928.701 582.953L1053.22 591.949C1057.08 592.227 1059.98 595.579 1059.7 599.435C1059.69 599.58 1059.67 599.725 1059.66 599.869L1047.66 688.548C1047.15 692.271 1043.8 694.933 1040.06 694.578L913.641 682.587C909.793 682.222 906.968 678.806 907.334 674.958C907.348 674.804 907.368 674.651 907.393 674.498L921.287 588.814C921.868 585.235 925.085 582.692 928.701 582.953ZM914.314 675.545L1040.75 687.713L1052.86 598.941L928.197 589.935L914.314 675.545ZM962.362 638.935C957.392 638.935 953.362 634.905 953.362 629.935C953.362 624.964 957.392 620.935 962.362 620.935C967.333 620.935 971.362 624.964 971.362 629.935C971.362 634.905 967.333 638.935 962.362 638.935ZM948.581 649.672L1013.42 654.207L1013.14 658.197L948.302 653.663L948.581 649.672ZM1003.58 641.9L995.396 632.15L1005.15 623.969L1013.33 633.719L1003.58 641.9Z" fill="#F6F0FF"/>
<path fill-rule="evenodd" clip-rule="evenodd" d="M1294.3 526.934C1300.69 526.354 1305.52 526.854 1308.8 528.434C1312.08 530.014 1316.25 533.847 1321.3 539.934L1295.3 563.434C1293.97 562.434 1292.97 561.767 1292.3 561.434C1291.64 561.101 1290.47 560.767 1288.8 560.434L1294.3 526.934ZM758.845 571.421C763.174 569.183 767.159 567.687 770.802 566.934C774.445 566.181 780.112 565.681 787.802 565.434L781.302 594.434L777.802 594.934L774.333 596.072L758.845 571.421ZM646.698 672.501C648.077 666.603 649.446 662.081 650.802 658.934C652.159 655.787 654.692 651.258 658.402 645.346L681.302 670.434L679.704 673.588L678.646 677.082L646.698 672.501ZM1363.8 793.434C1362.09 801.91 1359.92 807.577 1357.3 810.434C1354.68 813.291 1349.52 815.625 1341.8 817.434L1329.8 786.434C1331.63 785.892 1332.81 785.36 1333.34 784.838C1333.87 784.316 1334.36 783.348 1334.8 781.934L1363.8 793.434Z" fill="#67577F"/>
<path d="M1070.32 437.613L1079.8 452.121L1136.19 443.692L1136.41 445.176L1079.08 453.747L1068.94 438.251L1034.38 441.68C1033.96 441.721 1033.6 441.42 1033.56 441.008C1033.51 440.596 1033.82 440.228 1034.23 440.187L1068.91 436.746L1071.95 412.864L1126.08 395.719C1126.47 395.594 1126.89 395.812 1127.02 396.207C1127.14 396.602 1126.92 397.024 1126.53 397.149L1073.31 414.004L1070.32 437.613Z" fill="#67577F"/>
<path d="M928.735 665.681C928.302 665.642 927.992 665.243 928.062 664.814L937.562 606.314C937.624 605.929 937.97 605.657 938.359 605.686L1037.86 613.186C1038.29 613.219 1038.61 613.61 1038.54 614.039L1030.04 674.039C1029.99 674.434 1029.63 674.716 1029.24 674.681L928.735 665.681ZM938.932 607.233L929.672 664.259L1028.66 673.123L1036.95 614.622L938.932 607.233ZM928.303 582.426L1052.82 591.422C1057.09 591.73 1060.3 595.441 1060 599.71C1059.98 599.871 1059.97 600.031 1059.95 600.191L1047.95 688.869C1047.39 692.991 1043.68 695.938 1039.54 695.545L913.118 683.555C908.857 683.151 905.73 679.369 906.134 675.108C906.15 674.937 906.172 674.768 906.2 674.599L920.094 588.915C920.737 584.952 924.299 582.136 928.303 582.426ZM928.195 583.922C924.966 583.689 922.093 585.96 921.575 589.155L907.68 674.839C907.658 674.975 907.641 675.112 907.628 675.249C907.302 678.686 909.823 681.736 913.259 682.062L1039.68 694.052C1043.02 694.369 1046.01 691.993 1046.46 688.668L1058.46 599.989C1058.48 599.861 1058.49 599.731 1058.5 599.602C1058.75 596.159 1056.16 593.166 1052.72 592.918L928.195 583.922ZM912.993 676.436L927.114 589.358L1053.25 598.471L1040.95 688.749L912.993 676.436ZM1039.66 687.118L1051.55 599.852L928.375 590.953L914.73 675.096L1039.66 687.118ZM962.302 639.684C956.917 639.684 952.552 635.319 952.552 629.934C952.552 624.549 956.917 620.184 962.302 620.184C967.687 620.184 972.052 624.549 972.052 629.934C972.052 635.319 967.687 639.684 962.302 639.684ZM962.302 638.184C966.859 638.184 970.552 634.49 970.552 629.934C970.552 625.378 966.859 621.684 962.302 621.684C957.746 621.684 954.052 625.378 954.052 629.934C954.052 634.49 957.746 638.184 962.302 638.184ZM947.825 648.871L1014.16 653.51L1013.78 658.997L947.441 654.358L947.825 648.871ZM949.042 652.966L1012.39 657.396L1012.56 654.902L949.217 650.472L949.042 652.966ZM1003.43 642.956L994.28 632.057L1005.18 622.911L1014.32 633.811L1003.43 642.956ZM1012.21 633.626L1004.99 625.025L996.393 632.242L1003.61 640.843L1012.21 633.626Z" fill="#67577F"/>
<path d="M1032.3 1068.18V1066.68V1068.18ZM1032.3 1066.68C1033.3 1066.68 1033.3 1068.18 1032.3 1068.18H1020.8C1019.8 1068.18 1019.8 1066.68 1020.8 1066.68H1032.3H1043.8C1044.8 1066.68 1044.8 1068.18 1043.8 1068.18H1032.3C1031.3 1068.18 1031.3 1066.68 1032.3 1066.68ZM996.534 1017.26L995.57 1016.11L996.534 1017.26ZM996.534 1017.26L987.284 1025.01C986.517 1025.65 985.554 1024.5 986.32 1023.86L995.57 1016.11L1004.82 1008.36C1005.59 1007.72 1006.55 1008.87 1005.78 1009.51L996.534 1017.26Z" fill="#67577F"/>
</svg>
