<svg t="1726915436363" class="icon" viewBox="0 0 1025 1024" version="1.1" xmlns="http://www.w3.org/2000/svg" p-id="20849" width="200" height="200"><path d="M249.6 806.4c0 20.8 120.8 38.4 269.6 38.4s270.4-16.8 270.4-38.4c0-20.8-120.8-38.4-270.4-38.4s-269.6 17.6-269.6 38.4z" fill="#E0E0E0" p-id="20850"></path><path d="M907.2 560.8c0 8 6.4 13.6 13.6 13.6 8 0 13.6-6.4 13.6-13.6 0-8-6.4-13.6-13.6-13.6-8-0.8-13.6 5.6-13.6 13.6z" fill="#55B8FA" p-id="20851"></path><path d="M0 425.6c0 5.6 4.8 10.4 10.4 10.4s10.4-4.8 10.4-10.4-4.8-10.4-10.4-10.4-10.4 4.8-10.4 10.4z" fill="#A1D8FD" p-id="20852"></path><path d="M865.6 474.4c0-12.8-11.2-24-24-24s-24 11.2-24 24 11.2 24 24 24 24-11.2 24-24z m-62.4 0c0-20.8 17.6-38.4 38.4-38.4s38.4 17.6 38.4 38.4-17.6 38.4-38.4 38.4-38.4-17.6-38.4-38.4z" fill="#80CBFD" p-id="20853"></path><path d="M892.8 211.2c0-12.8-11.2-24-24-24s-24 11.2-24 24 11.2 24 24 24c13.6 0 24-11.2 24-24z m-34.4 0c0-5.6 4.8-10.4 10.4-10.4s10.4 4.8 10.4 10.4-4.8 10.4-10.4 10.4-10.4-4.8-10.4-10.4z m131.2 175.2h-12c-4 0-8 3.2-8 8 0 4 3.2 8 8 8h12v12c0 4 3.2 8 8 8s8-3.2 8-8v-12h12c4 0 8-3.2 8-8 0-4-3.2-8-8-8h-12v-12c0-4-3.2-8-8-8-4 0-8 3.2-8 8v12z" fill="#A1D8FD" p-id="20854"></path><path d="M145.6 629.6h-20.8c-3.2 0-7.2 2.4-7.2 7.2s2.4 7.2 7.2 7.2h20.8v20.8c0 3.2 2.4 7.2 7.2 7.2 4 0 7.2-2.4 7.2-7.2v-20.8h20.8c3.2 0 7.2-2.4 7.2-7.2s-2.4-7.2-7.2-7.2H160v-20.8c0-3.2-2.4-7.2-7.2-7.2-4 0-7.2 2.4-7.2 7.2v20.8z" fill="#80CBFD" p-id="20855"></path><path d="M732-745.577h-438.4c-16 0-28.8-12.8-28.8-28.8v-311.2h468c16 0 28.8 12.8 28.8 28.8v282.4c-0.8 16-13.6 28.8-29.6 28.8zM264-1137.577c0-16 12.8-28.8 28.8-28.8h106.4c52.8 0 116.8 43.2 175.2 65.6h-310.4v-36.8z" fill="#FFFFFF" p-id="20856"></path><path d="M278.4 719.2c-16 0-28.8-12.8-28.8-28.8V320c0-16 12.8-28.8 28.8-28.8H400c72.8 0 164.8 80.8 235.2 80.8h110.4c16 0 28.8 12.8 28.8 28.8v290.4c0 16-12.8 28.8-28.8 28.8l-467.2-0.8z m120.8-414.4H292.8c-16 0-28.8 12.8-28.8 28.8v36.8h311.2c-58.4-23.2-123.2-65.6-176-65.6z m332.8 80.8H264v290.4c0 16 12.8 28.8 28.8 28.8h438.4c16 0 28.8-12.8 28.8-28.8V415.2c0.8-16.8-12-29.6-28-29.6z" fill="#90999F" p-id="20857"></path><path d="M304-1548.77l-12.8-129.6s-4-20 31.2-24 275.2-29.6 275.2-29.6l88 67.2s8 15.2 11.2 32.8c2.4 17.6 8.8 84.8 8.8 84.8l-401.6-1.6z" fill="#ffffff" p-id="20858"></path><path d="M640.8 204.8c-3.2-2.4-8-1.6-10.4 1.6-2.4 3.2-1.6 8 1.6 10.4 8.8 6.4 16 12 23.2 17.6 3.2 2.4 8 2.4 10.4-1.6 2.4-3.2 2.4-8-1.6-10.4-8-5.6-14.4-11.2-23.2-17.6zM620.8 264l-6.4-28c-0.8-4-4.8-6.4-8.8-5.6-4 0.8-6.4 4.8-5.6 8.8l6.4 28c0.8 4 4.8 6.4 8.8 5.6s6.4-4 5.6-8.8z m35.2-3.2l-28.8 4.8c-4 0.8-7.2 4.8-6.4 8s4 7.2 8 6.4l28.8-4.8c4-0.8 7.2-4.8 6.4-8-0.8-4.8-4-8-8-6.4z m-51.2-38.4c4-0.8 6.4-4.8 5.6-8.8l-3.2-16c2.4 1.6 4 3.2 7.2 4.8 3.2 2.4 8 1.6 10.4-1.6 2.4-3.2 1.6-8-1.6-10.4-11.2-8-15.2-11.2-20.8-15.2l-2.4-1.6h-2.4l-4 0.8c-4 0.8-7.2 4-6.4 8 0 2.4 1.6 4 3.2 5.6l6.4 28c0 5.6 4 7.2 8 6.4zM288.8 280c4-0.8 7.2-4 6.4-8l-2.4-28v-0.8c0-4-3.2-7.2-8-7.2s-7.2 3.2-7.2 8v1.6l2.4 28c0.8 4.8 4.8 7.2 8.8 6.4z m424 52.8c-0.8-4-4-7.2-8-6.4-4 0.8-7.2 4-6.4 8l2.4 28.8c0.8 4 4 7.2 8 6.4 4-0.8 7.2-4 6.4-8l-2.4-28.8zM704 319.2c4-0.8 7.2-4 6.4-8l-2.4-28.8c-0.8-4-4-7.2-8-6.4s-7.2 4-6.4 8l2.4 28.8c0.8 4 4.8 7.2 8 6.4z m-6.4-51.2h2.4c4-0.8 7.2-4 6.4-8V256l-2.4-2.4c-7.2-5.6-13.6-12-21.6-18.4-3.2-2.4-8-2.4-10.4 1.6-2.4 3.2-2.4 8 1.6 10.4l10.4 8-6.4 0.8c-4 0.8-7.2 4.8-6.4 8 0.8 4 4 7.2 8 6.4l18.4-2.4c-0.8 0.8 0 0 0 0zM571.2 177.6l-28.8 2.4c-4 0.8-7.2 4-6.4 8s4 7.2 8 6.4l28.8-2.4c4-0.8 7.2-4 6.4-8 0-3.2-4-6.4-8-6.4zM295.2 339.2c-4 0.8-7.2 4-6.4 8l2.4 28.8c0.8 4 4 7.2 8 6.4 4-0.8 7.2-4 6.4-8l-2.4-28.8c-0.8-4.8-4-7.2-8-6.4z m21.6-134.4l-6.4 0.8c-9.6 0.8-18.4 5.6-24 12.8-2.4 3.2-2.4 8 0.8 10.4 3.2 2.4 8 2.4 10.4-0.8 3.2-4 8.8-8 14.4-8l6.4-0.8c4-0.8 7.2-4 6.4-8 0-4-3.2-7.2-8-6.4z m204-21.6l-28.8 2.4c-4 0.8-7.2 4-6.4 8 0.8 4 4 7.2 8 6.4l28.8-2.4c4-0.8 7.2-4 6.4-8-0.8-3.2-4-7.2-8-6.4zM294.4 331.2c4-0.8 7.2-4 6.4-8l-2.4-28.8c-0.8-4-4-7.2-8-6.4-4 0.8-7.2 4-6.4 8l2.4 28.8c0 4 4 7.2 8 6.4zM368 199.2l-28.8 2.4c-4 0.8-7.2 4-6.4 8 0.8 4 4 7.2 8 6.4l28.8-2.4c4-0.8 7.2-4 6.4-8-0.8-4-4-6.4-8-6.4z m101.6-10.4l-29.6 2.4c-4 0.8-7.2 4-6.4 8 0.8 4 4 7.2 8 6.4l28.8-2.4c4-0.8 7.2-4 6.4-8s-3.2-7.2-7.2-6.4z m-50.4 5.6l-28.8 2.4c-4 0.8-7.2 4-6.4 8 0.8 4 4 7.2 8 6.4l28.8-2.4c4-0.8 7.2-4 6.4-8s-4-7.2-8-6.4z" fill="#90999F" p-id="20859"></path><path d="M500.8 470.4c0-4-2.4-6.4-5.6-6.4-20 0-36-13.6-44-20-2.4-1.6-2.4-2.4-4-2.4-2.4-1.6-6.4-0.8-8 2.4-2.4 2.4-0.8 6.4 2.4 8.8 0.8 0.8 2.4 1.6 2.4 2.4 8.8 7.2 27.2 21.6 50.4 21.6 3.2 0 6.4-2.4 6.4-6.4z m-16.8 144.8l29.6-18.4 32.8 18.4c0.8 0.8 1.6 0.8 2.4 0.8 2.4 0 4-1.6 4.8-4 0.8-4-0.8-7.2-3.2-8.8L514.4 584c-1.6-0.8-2.4-0.8-4 0l-31.2 20c-2.4 1.6-4 5.6-2.4 8.8 1.6 2.4 4 4.8 7.2 2.4z m94.4-163.2c2.4-1.6 4-5.6 2.4-8.8-1.6-2.4-4.8-4-8-2.4-0.8 0.8-2.4 1.6-4 2.4-8.8 6.4-24.8 20-44 20-2.4 0-5.6 2.4-5.6 6.4s2.4 6.4 5.6 6.4c23.2 0 41.6-15.2 50.4-21.6 1.6-0.8 3.2-2.4 3.2-2.4z m-109.6 50.4c-1.6-4.8-5.6-8.8-8.8-8.8h-88c-4 0-7.2 4-7.2 9.6 0 4.8 2.4 9.6 7.2 9.6h16.8c7.2 19.2 2.4 38.4 2.4 38.4-12 36 0 60 0 60 7.2 20 2.4 42.4 2.4 42.4 27.2-6.4 47.2 6.4 47.2 6.4 13.6-18.4 2.4-47.2 2.4-47.2-8.8-23.2 0-48.8 0-48.8 7.2-20 5.6-40.8 4-52.8h15.2c3.2 0.8 6.4-3.2 6.4-8.8z m184.8 11.2c4 0 7.2-4 7.2-9.6-0.8-6.4-4.8-11.2-8-11.2H564c-4 0-7.2 4-7.2 9.6 0 4.8 2.4 9.6 7.2 9.6h15.2c-2.4 12.8-2.4 32.8 4 52.8 0 0 8.8 24.8 0 48.8 0 0-12 28.8 2.4 47.2 0 0 20-12.8 47.2-6.4 0 0-5.6-23.2 2.4-42.4 0 0 12-24 0-60 0 0-5.6-20 2.4-38.4h16z" fill="#90999F" p-id="20860"></path><path d="M436-144.789l-0.8 1.6c-4 12-8.8 26.4 2.4 56.8 6.4 18.4 2.4 29.6-0.8 33.6-0.8 0-0.8-0.8-1.6-0.8-6.4-2.4-12-4-17.6-4.8h-1.6c-2.4-0.8-4.8-0.8-8-0.8h-2.4c-2.4 0-4 0-5.6 0.8h-1.6c-0.8 0-0.8 0-1.6 0.8 2.4-9.6 2.4-24-2.4-32.8-8-15.2-7.2-42.4 0-64.8 2.4-8.8 0-24.8-2.4-35.2h45.6c4 7.2 5.6 24.8-1.6 45.6zM628-156.789c7.2 24 8 50.4 0 64.8-4.8 9.6-4 24-2.4 32.8-0.8 0-0.8 0-1.6-0.8h-1.6c-2.4-0.8-4-0.8-5.6-0.8h-1.6c-2.4 0-4.8 0-8 0.8h-1.6c-5.6 0.8-11.2 2.4-17.6 4.8-0.8 0-0.8 0.8-1.6 0.8-2.4-4.8-7.2-15.2-0.8-33.6 10.4-30.4 5.6-44.8 2.4-56.8l-0.8-1.6c-7.2-20.8-4.8-38.4-2.4-48.8h45.6c-2.4 13.6-4.8 29.6-2.4 38.4z" fill="#FFFFFF" p-id="20861"></path></svg>