<?xml version="1.0" standalone="no"?><!DOCTYPE svg PUBLIC "-//W3C//DTD SVG 1.1//EN" "http://www.w3.org/Graphics/SVG/1.1/DTD/svg11.dtd"><svg t="1733479195846" class="icon" viewBox="0 0 1024 1024" version="1.1" xmlns="http://www.w3.org/2000/svg" p-id="4554" xmlns:xlink="http://www.w3.org/1999/xlink" width="128" height="128"><path d="M945.777778 384h-71.111111V230.968889a42.666667 42.666667 0 0 0-12.515556-30.151111L673.848889 12.515556A42.666667 42.666667 0 0 0 643.697778 0H177.777778a42.666667 42.666667 0 0 0-42.666667 42.666667v341.333333H78.222222a42.666667 42.666667 0 0 0-42.666666 42.666667v355.555555a42.666667 42.666667 0 0 0 42.666666 42.666667h56.888889v156.444444a42.666667 42.666667 0 0 0 42.666667 42.666667h654.222222a42.666667 42.666667 0 0 0 42.666667-42.666667V824.888889h71.111111a42.666667 42.666667 0 0 0 42.666666-42.666667V426.666667a42.666667 42.666667 0 0 0-42.666666-42.666667z m-103.68-162.986667A12.657778 12.657778 0 0 1 846.222222 227.555556H661.333333a14.222222 14.222222 0 0 1-14.222222-14.222223V29.155556a14.222222 14.222222 0 0 1 6.542222 3.413333zM163.555556 42.666667a14.222222 14.222222 0 0 1 14.222222-14.222223h440.888889v184.888889a42.666667 42.666667 0 0 0 42.666666 42.666667h184.888889v128H163.555556z m682.666666 938.666666a14.222222 14.222222 0 0 1-14.222222 14.222223H177.777778a14.222222 14.222222 0 0 1-14.222222-14.222223V824.888889h682.666666z m113.777778-199.111111a14.222222 14.222222 0 0 1-14.222222 14.222222H78.222222a14.222222 14.222222 0 0 1-14.222222-14.222222V426.666667a14.222222 14.222222 0 0 1 14.222222-14.222223h867.555556a14.222222 14.222222 0 0 1 14.222222 14.222223z" fill="#0F66F0" p-id="4555"></path><path d="M361.386667 517.973333h-59.591111v169.671111h40.675555v-56.888888H362.666667c35.982222 0 66.986667-17.777778 66.986666-58.168889s-31.146667-54.613333-68.266666-54.613334z m-1.137778 81.351111h-17.777778V550.4h16.64c19.626667 0 30.435556 5.831111 30.435556 22.897778s-9.528889 26.026667-29.297778 26.026666zM506.737778 517.973333h-48.64v169.671111h50.915555c49.493333 0 83.626667-26.595556 83.626667-85.333333s-34.133333-84.337778-85.902222-84.337778zM504.888889 654.222222h-5.546667v-103.68H504.888889c27.306667 0 46.648889 11.235556 46.648889 51.484445S531.626667 654.222222 504.888889 654.222222zM623.928889 687.644444h40.817778V622.933333h57.742222v-33.848889h-57.742222v-37.12h67.413333v-33.991111h-108.231111v169.671111z" fill="#0F66F0" p-id="4556"></path></svg>