<svg  viewBox="0 0 220 188" version="1.1" xmlns="http://www.w3.org/2000/svg" xmlns:xlink="http://www.w3.org/1999/xlink">
    <title>m78222222</title>
    <g id="页面-1" stroke="none" stroke-width="1" fill="none" fill-rule="evenodd">
        <g id="m78222222" fill-rule="nonzero">
            <path d="M169.368423,133 C167.02883,132.939773 164.797956,132.069528 163.113701,130.560085 L130.401502,101.513471 C127.691281,99.4174807 126.464173,96.0936139 127.219352,92.8939831 C127.974531,89.6943524 130.586173,87.152068 133.991889,86.3013031 C137.397606,85.4505382 141.02995,86.4330441 143.411325,88.8491481 L176.060976,117.895761 C178.829458,120.325269 179.741815,124.06822 178.369948,127.368336 C176.998082,130.668452 173.614261,132.870768 169.806254,132.941907 L169.368423,133 Z" id="路径" fill="#E50001"></path>
            <path d="M191.086538,93.7162695 C190.560237,93.10298 189.948503,92.5567816 189.26726,92.0918932 C188.854433,50.7346971 152.500283,17.4006318 107.776153,17.3705792 C104.357656,17.3597599 100.941986,17.553543 97.5505558,17.9507136 C56.9618367,-2.87611222 23.5247621,-5.83479779 8.09226608,10.4089661 C-7.34022991,26.65273 -0.376786598,56.4716395 26.2223122,90.9896377 C26.1573245,91.5876038 26.1573245,92.1900884 26.2223122,92.7880545 C26.2223122,134.439976 62.7352103,168.20553 107.776153,168.20553 C111.175162,168.19705 114.569966,167.983882 117.939016,167.567382 C143.032505,181.026501 165.365711,187.9301 182.805686,187.9301 C193.696297,188.573196 204.341602,184.754279 211.914134,177.487681 C227.785766,160.953849 220.006784,129.62659 191.086538,93.7162695 L191.086538,93.7162695 Z M51.8176714,118.83609 C57.6519077,124.637434 63.7998126,130.032685 70.6377884,135.369921 C75.5310189,139.430862 80.5497168,143.201736 85.6311484,146.97261 C70.9505342,141.835906 58.8855682,131.796532 51.8176714,118.83609 L51.8176714,118.83609 Z M197.799046,165.943005 C190.270999,174.006874 164.67564,172.846605 126.59627,152.019779 C110.97405,143.449559 96.2698151,133.523135 82.6826634,122.37491 C67.7799701,110.193492 54.3210299,96.5804091 42.5330803,81.7655004 C18.317863,51.0763893 14.9302419,29.0892946 22.0818864,21.663574 C27.9161227,15.5721625 45.2306304,14.8179877 71.202392,25.1443805 C58.2596196,31.0995707 47.2611973,40.129218 39.3336604,51.3084431 C36.7040272,55.3203938 37.9868147,60.5378557 42.2337562,63.1039581 C46.4806977,65.6700604 52.1628468,64.6609777 55.079825,60.8226476 C70.2229384,39.13981 99.0360097,29.3169888 125.774839,36.721625 C152.513667,44.1262613 170.746266,66.9771803 170.509876,92.7880545 C170.507004,109.257042 162.935043,124.948772 149.68228,135.950056 L98.6797629,89.5393017 C96.3090343,87.2365026 92.7689173,86.3127048 89.4461773,87.1297864 C86.1234373,87.946868 83.5470942,90.3747398 82.7263754,93.4623349 C81.9056566,96.5499299 82.9712304,99.8056662 85.5056809,101.954178 L142.405168,153.818196 C145.636775,156.754739 150.672432,157.144834 154.387309,154.746411 C161.604213,150.094604 167.959703,144.393639 173.207426,137.864499 C178.417542,131.433046 182.464212,124.262157 185.189568,116.631579 C202.190407,141.57736 204.135152,159.329473 197.799046,165.943005 L197.799046,165.943005 Z" id="形状" fill="#fff"></path>
            <path d="M199,75.5 C199,80.1944204 203.253295,84 208.5,84 C213.746705,84 218,80.1944204 218,75.5 C218,70.8055796 213.746705,67 208.5,67 C203.253295,67 199,70.8055796 199,75.5 Z" id="路径" fill="#E50001"></path>
        </g>
    </g>
</svg>