<svg viewBox="0 0 269 157" version="1.1" xmlns="http://www.w3.org/2000/svg" xmlns:xlink="http://www.w3.org/1999/xlink">
    <g id="页面-1" stroke="none" stroke-width="1" fill="none" fill-rule="evenodd">
        <g id="编组-3" transform="translate(11.000000, 0.000000)">
            <path d="M87,39.9563609 L87,7.4385784 C87,5.5974189 87.8683906,3.89635703 89.6051719,2.33755478 C91.343367,0.778752526 93.1960751,0 95.1650634,0 L156.83529,0 C158.687998,0 160.513138,0.778752526 162.307883,2.33755478 C164.102628,3.89635703 165,5.5974189 165,7.4385784 L165,29.3288319 C165,32.5886961 163.899756,36.7674103 161.700328,41.868434 L114.968399,152.598309 C113.927532,154.86495 112.073057,156 109.409922,156 C106.399006,156 103.735871,154.935863 101.419102,152.811049 C99.1023331,150.686236 97.9441255,148.065026 97.9441255,144.946989 C97.9441255,143.389484 98.2339425,141.972509 98.8125161,140.696929 L146.585665,33.1547078 L146.585665,19.9781804 L105.414688,19.9781804 L105.414688,39.9563609 C105.414688,42.0811748 104.458999,43.8531503 102.548328,45.2701253 C100.637656,46.6858031 98.4657961,47.3949393 96.033454,47.3949393 C93.6021723,47.3949393 91.4882755,46.6858031 89.692117,45.2701253 C87.8973723,43.8531503 87,42.0811748 87,39.9563609 Z M180,113.116279 L180,110.559638 C180,89.9682595 186.658368,76.6883782 199.977226,70.7238951 C189.206991,65.6110476 183.821343,54.5341504 183.821343,37.4927702 C183.821343,24.5682788 186.977521,15.0893361 193.289522,9.05377502 C199.601524,3.01864734 208.200253,0 219.087475,0 C229.973637,0 238.572012,3.01864734 244.884368,9.05377502 C251.19637,15.0893361 254.352547,24.5682788 254.352547,37.4927702 C254.352547,54.6763064 248.908583,65.753637 238.022774,70.7238951 C251.341278,76.6883782 258,89.9682595 258,110.559638 L258,113.116279 C258,128.170076 254.468474,139.247406 247.403655,146.349571 C240.339189,153.449568 230.899991,157 219.087475,157 C207.273899,157 197.80678,153.449568 190.684351,146.349571 C183.561921,139.247406 180,128.170076 180,113.116279 Z M199,110.492385 C199,119.733028 200.816153,126.627068 204.449866,131.177109 C208.082524,135.725847 213.128331,138 219.587288,138 C233.195763,138 240,128.830072 240,110.492385 L240,106.653831 C240,88.8835981 233.195763,80 219.587288,80 C205.86196,80 199,88.8835981 199,106.653831 L199,110.492385 Z M202,40.3927144 C202,54.7964108 207.666263,62 218.999827,62 C230.332353,62 236,54.7964108 236,40.3927144 C236,26.1300343 230.332353,19 218.999827,19 C207.666263,19 202,26.1300343 202,40.3927144 Z" id="num_78" fill="#fff"></path>
            <g id="编组-2" transform="translate(0.000000, 81.819149)" stroke-linecap="square" stroke-width="20">
                <line x1="2.20767088e-14" y1="1.67368421" x2="0.520547945" y2="64.3263158" id="直线" stroke="#fff"></line>
                <line x1="81.4794521" y1="1.67368421" x2="81.4794521" y2="64.3263158" id="直线" stroke="#fff"></line>
                <line x1="6.26027397" y1="1.33684211" x2="81.4794521" y2="1.67368421" id="直线-3" stroke="#fff"></line>
                <line x1="41.3917526" y1="26.4950103" x2="41" y2="64.3263158" id="直线" stroke="#fff"></line>
                <line x1="81.4794521" y1="1.67368421" x2="81.4794521" y2="64.3263158" id="直线" stroke="#fff"></line>
                <line x1="4.69416173e-14" y1="1.18085106" x2="81.4794521" y2="1.67368421" id="直线-3" stroke="#fff"></line>
            </g>
        </g>
    </g>
</svg>